<svg width="1141" height="1141" viewBox="0 0 1141 1141" fill="none" xmlns="http://www.w3.org/2000/svg">
<g opacity="0.5">
<path d="M841.799 356.273L710.241 391.523" stroke="#B2B2B2"/>
<path d="M806.548 224.716L674.991 259.966" stroke="url(#paint0_linear_57242_309)"/>
<path d="M710.241 391.523L674.991 259.966" stroke="#B2B2B2"/>
<path d="M841.799 356.273L806.548 224.715" stroke="#B2B2B2"/>
<path d="M710.242 391.523L534.832 438.524" stroke="#B2B2B2"/>
<path d="M674.991 259.966L499.581 306.967" stroke="url(#paint1_linear_57242_309)"/>
<path d="M534.832 438.524L499.581 306.967" stroke="#B2B2B2"/>
<path d="M710.242 391.523L674.991 259.966" stroke="url(#paint2_linear_57242_309)"/>
<path d="M192.614 389.219L324.171 353.968" stroke="#B2B2B2"/>
<path d="M227.864 520.776L359.422 485.526" stroke="#B2B2B2"/>
<path d="M324.171 353.968L359.422 485.526" stroke="#B2B2B2"/>
<path d="M192.614 389.219L227.864 520.776" stroke="#B2B2B2"/>
<path d="M324.171 353.968L499.581 306.967" stroke="url(#paint3_linear_57242_309)"/>
<path d="M359.422 485.526L534.832 438.525" stroke="#B2B2B2"/>
<path d="M324.171 353.968L359.422 485.526" stroke="#B2B2B2"/>
<path d="M534.831 438.524L666.388 403.274" stroke="#B2B2B2"/>
<path d="M570.082 570.082L701.639 534.831" stroke="#B2B2B2"/>
<path d="M666.388 403.274L701.639 534.831" stroke="#B2B2B2"/>
<path d="M666.388 403.274L841.798 356.273" stroke="#B2B2B2"/>
<path d="M701.639 534.831L877.048 487.83" stroke="#B2B2B2"/>
<path d="M841.798 356.273L877.049 487.83" stroke="url(#paint4_linear_57242_309)"/>
<path d="M666.388 403.274L701.639 534.831" stroke="#B2B2B2"/>
<path d="M570.082 570.082L438.525 605.332" stroke="#B2B2B2"/>
<path d="M534.832 438.524L403.274 473.775" stroke="#B2B2B2"/>
<path d="M438.525 605.332L403.274 473.775" stroke="#B2B2B2"/>
<path d="M438.525 605.332L263.115 652.333" stroke="#B2B2B2"/>
<path d="M403.274 473.775L227.865 520.776" stroke="#B2B2B2"/>
<path d="M263.115 652.333L227.865 520.776" stroke="url(#paint5_linear_57242_309)"/>
<path d="M438.525 605.332L403.274 473.775" stroke="#B2B2B2"/>
<path d="M912.254 619.362L780.697 654.612" stroke="#B2B2B2"/>
<path d="M877.003 487.805L745.446 523.055" stroke="#B2B2B2"/>
<path d="M780.697 654.612L745.447 523.055" stroke="#B2B2B2"/>
<path d="M912.254 619.362L877.004 487.804" stroke="#B2B2B2"/>
<path d="M780.697 654.612L605.287 701.613" stroke="#B2B2B2"/>
<path d="M745.446 523.055L570.036 570.056" stroke="#B2B2B2"/>
<path d="M605.287 701.613L570.036 570.056" stroke="#B2B2B2"/>
<path d="M780.697 654.612L745.446 523.055" stroke="url(#paint6_linear_57242_309)"/>
<path d="M263.069 652.307L394.627 617.057" stroke="#B2B2B2"/>
<path d="M298.32 783.865L429.878 748.614" stroke="#B2B2B2"/>
<path d="M394.626 617.057L429.877 748.614" stroke="#B2B2B2"/>
<path d="M263.069 652.307L298.32 783.865" stroke="#B2B2B2"/>
<path d="M394.627 617.057L570.037 570.056" stroke="url(#paint7_linear_57242_309)"/>
<path d="M429.878 748.614L605.288 701.613" stroke="#B2B2B2"/>
<path d="M394.627 617.057L429.878 748.614" stroke="#B2B2B2"/>
<path d="M605.287 701.613L736.844 666.362" stroke="#B2B2B2"/>
<path d="M640.537 833.17L772.094 797.92" stroke="#B2B2B2"/>
<path d="M736.844 666.362L772.094 797.92" stroke="#B2B2B2"/>
<path d="M736.844 666.362L912.254 619.362" stroke="url(#paint8_linear_57242_309)"/>
<path d="M772.095 797.92L947.505 750.919" stroke="url(#paint9_linear_57242_309)"/>
<path d="M912.253 619.361L947.504 750.919" stroke="#B2B2B2"/>
<path d="M736.844 666.362L772.095 797.92" stroke="#B2B2B2"/>
<path d="M640.538 833.171L508.98 868.421" stroke="#B2B2B2"/>
<path d="M605.287 701.613L473.73 736.864" stroke="#B2B2B2"/>
<path d="M508.98 868.421L473.73 736.864" stroke="#B2B2B2"/>
<path d="M508.98 868.421L333.571 915.422" stroke="#B2B2B2"/>
<path d="M473.729 736.864L298.32 783.865" stroke="#B2B2B2"/>
<path d="M333.57 915.422L298.32 783.865" stroke="#B2B2B2"/>
<path d="M508.98 868.421L473.73 736.864" stroke="url(#paint10_linear_57242_309)"/>
</g>
<defs>
<linearGradient id="paint0_linear_57242_309" x1="785.074" y1="212.318" x2="714.343" y2="247.696" gradientUnits="userSpaceOnUse">
<stop stop-color="#13B0F5"/>
<stop offset="1" stop-color="#CA24B4"/>
</linearGradient>
<linearGradient id="paint1_linear_57242_309" x1="674.168" y1="261.392" x2="542.482" y2="362.721" gradientUnits="userSpaceOnUse">
<stop stop-color="#E70FAA"/>
<stop offset="1" stop-color="#13B0F5"/>
</linearGradient>
<linearGradient id="paint2_linear_57242_309" x1="722.639" y1="370.05" x2="687.262" y2="299.319" gradientUnits="userSpaceOnUse">
<stop stop-color="#13B0F5"/>
<stop offset="1" stop-color="#CA24B4"/>
</linearGradient>
<linearGradient id="paint3_linear_57242_309" x1="352.802" y1="370.499" x2="447.11" y2="323.328" gradientUnits="userSpaceOnUse">
<stop stop-color="#00C0FD"/>
<stop offset="0.421875" stop-color="#E70FAA"/>
<stop offset="1" stop-color="#00C0FD"/>
</linearGradient>
<linearGradient id="paint4_linear_57242_309" x1="829.4" y1="377.746" x2="864.778" y2="448.477" gradientUnits="userSpaceOnUse">
<stop stop-color="#13B0F5"/>
<stop offset="0.0001" stop-color="#505685"/>
<stop offset="0.317708" stop-color="#CA24B4"/>
<stop offset="1" stop-color="#13B0F5"/>
</linearGradient>
<linearGradient id="paint5_linear_57242_309" x1="263.115" y1="652.333" x2="185.99" y2="553.43" gradientUnits="userSpaceOnUse">
<stop stop-color="#8E34FF"/>
<stop offset="0.494792" stop-color="#CA24B4"/>
<stop offset="1" stop-color="#8E34FF"/>
</linearGradient>
<linearGradient id="paint6_linear_57242_309" x1="793.094" y1="633.139" x2="757.717" y2="562.408" gradientUnits="userSpaceOnUse">
<stop stop-color="#CA24B4"/>
<stop offset="0.234375" stop-color="#13B0F5"/>
</linearGradient>
<linearGradient id="paint7_linear_57242_309" x1="439.398" y1="605.362" x2="536.142" y2="530.261" gradientUnits="userSpaceOnUse">
<stop stop-color="#13B0F5"/>
<stop offset="0.75" stop-color="#CA24B4"/>
<stop offset="1" stop-color="#13B0F5"/>
</linearGradient>
<linearGradient id="paint8_linear_57242_309" x1="765.475" y1="682.893" x2="859.784" y2="635.723" gradientUnits="userSpaceOnUse">
<stop stop-color="#8643DC"/>
<stop offset="0.0001" stop-color="#8643DC"/>
<stop offset="0.317708" stop-color="#CA24B4"/>
<stop offset="1" stop-color="#8643DC"/>
</linearGradient>
<linearGradient id="paint9_linear_57242_309" x1="800.726" y1="814.45" x2="895.034" y2="767.28" gradientUnits="userSpaceOnUse">
<stop stop-color="#8643DC"/>
<stop offset="0.0001" stop-color="#8643DC"/>
<stop offset="0.317708" stop-color="#CA24B4"/>
<stop offset="1" stop-color="#8643DC"/>
</linearGradient>
<linearGradient id="paint10_linear_57242_309" x1="508.98" y1="868.421" x2="431.855" y2="769.518" gradientUnits="userSpaceOnUse">
<stop stop-color="#13B0F5"/>
<stop offset="0.0582928" stop-color="#CA24B4"/>
<stop offset="1" stop-color="#13B0F5"/>
</linearGradient>
</defs>
</svg>
