<svg width="121" height="121" viewBox="0 0 121 121" fill="none" xmlns="http://www.w3.org/2000/svg">
<path d="M92 21C98.626 21 103.272 22.0869 105.936 24.2607C108.625 26.4345 109.717 30.1797 109.213 35.4964L108.133 46.7321C107.941 48.7225 108.253 50.2809 109.069 51.4072C109.886 52.5333 111.062 53.332 112.598 53.8036C114.159 54.2487 115.959 54.4714 118 54.4714V64.5286C115.983 64.5286 114.195 64.7644 112.634 65.2355C111.074 65.6808 109.886 66.4667 109.069 67.5928C108.253 68.7191 107.941 70.2775 108.133 72.2677L109.213 83.425C109.765 88.7941 108.685 92.5654 105.972 94.7391C103.283 96.9132 98.626 98 92 98V89.3571C94.2089 89.3571 95.9252 89.0164 97.1494 88.3357C98.3741 87.6809 98.8902 86.3583 98.6983 84.3678L97.5817 72.7787C97.2937 69.819 97.5817 67.4486 98.4459 65.668C99.3343 63.8605 100.679 62.4856 102.479 61.5429C104.28 60.5736 106.392 59.8929 108.817 59.4999C106.248 59.0809 104.064 58.4 102.263 57.4571C100.486 56.5142 99.1904 55.1524 98.3741 53.3715C97.5577 51.5643 97.2937 49.181 97.5817 46.2213L98.6983 34.6321C98.8902 32.6416 98.3618 31.319 97.1136 30.6643C95.8892 29.9833 94.1847 29.6429 92 29.6429V21Z" fill="url(#paint0_linear_86_202)"/>
<path d="M60.2166 100.924C59.216 100.736 58.1794 100.228 57.5916 99.6656C57.1925 99.217 56.9647 98.6253 56.9533 98.0061C56.9533 97.3767 57.2532 96.4932 57.7283 95.6125C58.0162 95.1166 58.2418 94.5824 58.4026 94.0201C58.5034 93.6325 58.7145 93.0031 58.8777 92.6024L59.1656 91.8682L59.24 86.9599C59.2784 84.2452 59.3528 81.7308 59.4152 81.3404C59.5783 80.2155 59.8519 79.1188 60.2142 78.0504L60.4902 77.3416L60.0894 77.0873C59.7271 76.8459 59.4271 76.512 58.2394 74.9993C56.7781 73.1527 54.8537 72.1357 52.1279 71.7889C51.2401 71.6964 50.3403 71.6271 49.4404 71.5886C45.4405 71.3882 43.1537 70.4919 41.0926 68.3243C39.5545 66.7063 38.7555 64.8185 38.4315 62.0371C37.9948 58.2771 37.5078 56.3509 36.6079 54.7867C36.3861 54.4005 36.1306 54.0375 35.8449 53.7029L35.4826 53.3151L34.6835 53.8647C34.2468 54.1729 33.6325 54.5607 33.3326 54.7354C32.332 55.3235 31.3818 55.9784 30.47 56.6873C28.2337 58.4261 25.7958 60.6065 24.4593 62.0371C23.8594 62.6792 23.5475 62.9591 23.4083 62.9334C22.4965 62.787 23.1947 58.5596 24.6824 55.3749C26.5828 51.2682 29.7814 47.4825 33.4814 44.9271C36.5192 42.8262 41.4309 39.9368 43.7033 38.9198C47.7392 37.1143 52.9629 35.1598 56.5381 34.117C57.2892 33.8885 57.7499 33.6882 58.0619 33.4621C58.7625 32.9407 59.4488 32.6865 60.2358 32.6736C60.8981 32.6608 60.9605 32.648 61.5987 32.1908C62.3497 31.6695 62.5729 31.6412 63.3239 31.9237L63.8111 32.1112L64.4109 31.6695L65.0108 31.2405L65.8722 31.2534C66.5345 31.2662 66.8344 31.2405 67.1224 31.107C67.4847 30.9323 67.4967 30.9067 67.5975 30.2646C67.823 28.8726 67.847 28.1766 67.7102 27.3342C67.5351 26.2247 67.5111 21.9176 67.6862 21.0726C67.8734 20.1634 67.9981 19.976 68.6364 19.6421C69.5866 19.1464 70.2993 19 71.9358 19C73.9345 19 74.9471 19.2954 75.6982 20.071C76.3724 20.767 76.4852 22.3979 76.1349 26.2247C75.9213 28.4308 75.8973 29.0472 75.9597 30.4906C75.9837 31.4126 76.0461 32.2833 76.0725 32.404C76.1229 32.6325 76.1733 32.6454 76.8979 32.6582C77.6105 32.6711 77.7353 32.7122 78.4096 33.0872C79.0598 33.4493 79.547 33.891 79.6477 34.2121C79.6597 34.2789 79.7725 34.2789 79.9717 34.2121C80.358 34.0913 80.6963 34.2249 80.9723 34.5871C81.1354 34.8156 81.2338 34.8542 81.6105 34.8542C82.124 34.8542 82.3112 34.9877 82.7359 35.658C82.9346 35.9589 83.2069 36.1952 83.5229 36.3412C84.2236 36.7162 85.1738 37.7589 85.5361 38.5885C86.0976 39.8187 86.2103 41.2492 85.86 42.5334C85.7352 43.0162 85.7352 43.029 85.9968 43.4965C86.5463 44.5007 86.7478 45.7309 86.5223 46.7736L86.3975 47.39L86.7718 47.7907C88.6337 49.7837 88.3579 53.0352 86.0856 55.9373C85.8316 56.2688 85.6172 56.6329 85.4473 57.0212C85.0106 58.2642 84.5091 59.1349 83.8613 59.8566L83.199 60.5783H82.5247C81.8505 60.5783 80.9003 60.3369 80.3244 60.0158C80.0868 59.8822 80.0749 59.8822 80.1252 60.0415C80.2764 60.6297 80.6507 63.0233 80.7755 64.3486C80.9746 66.3827 80.9123 69.3387 80.6507 70.6101C80.4596 71.5517 80.1394 72.4578 79.7005 73.2991C79.451 73.728 79.439 73.8205 79.487 74.3418C79.5614 75.0763 79.4006 76.3091 79.1247 77.1233C78.7863 78.0736 78.6615 78.5153 78.5872 78.9956C78.5248 79.4091 78.5248 79.4091 78.8007 79.4091C79.163 79.4091 79.3622 79.6376 79.3622 80.0923C79.3622 80.2926 79.199 81.3764 78.9999 82.4859C78.4504 85.6038 78.412 85.9505 78.412 88.9732C78.4 92.0915 78.4 92.0634 79.0623 92.5305L80.55 93.5606C81.8298 94.4694 83.2004 95.2235 84.6363 95.8077C86.7238 96.6912 87.0116 96.9172 87.0116 97.6671C87.0116 98.0013 86.9496 98.1219 86.6879 98.389C85.8888 99.2184 84.3124 99.406 81.1378 99.0437C79.4882 98.878 77.8324 98.7937 76.1756 98.7896C71.8014 98.7225 71.1631 98.5609 70.5896 97.3973C70.2657 96.7295 70.3281 95.859 70.7768 94.4283C70.976 93.7996 71.1511 93.1572 71.3023 92.5024C71.6022 90.9512 71.4031 89.1047 70.7024 87.0189L70.1025 85.2391C69.5146 83.4336 69.1907 80.1282 69.5411 79.3808C69.6034 79.2344 69.7162 79.2062 70.0162 79.219L70.3905 79.2601L70.7024 78.5641C70.9399 78.0145 71.2015 77.6549 71.9141 76.8922L72.8259 75.9162L72.7756 75.2869C72.7372 74.6859 72.0005 71.7684 71.8997 71.7812C71.8613 71.7812 71.6622 72.0765 71.4367 72.449C70.8871 73.3325 69.6754 74.6962 68.9867 75.1919C68.6868 75.4051 68.4373 75.6594 68.4373 75.7416C68.4253 76.1036 68.1373 76.8125 67.787 77.3056C67.4487 77.7885 67.4247 77.8681 67.4751 78.2944C67.5614 78.9236 67.3743 80.9423 67.1512 82.0005C66.9489 82.7862 66.6723 83.5478 66.3257 84.2735C65.4643 86.1868 64.814 87.8973 64.6509 88.6883C64.533 89.4499 64.4577 90.2184 64.4253 90.9895C64.3869 91.8991 64.3006 92.7825 64.2382 92.9695C64.1518 93.2243 64.1518 93.4243 64.2261 93.8119C64.2885 94.092 64.3269 94.7214 64.3125 95.2173C64.3006 95.9001 64.3509 96.3419 64.5381 97.1432C64.862 98.5068 64.9244 99.3649 64.7757 99.8731C64.6749 100.194 64.5765 100.315 64.2382 100.49C63.4871 100.903 61.3636 101.132 60.2142 100.919L60.2166 100.924ZM63.2519 99.8272C63.6887 99.6937 64.0654 99.293 64.0654 98.9307C64.0654 98.7691 63.9406 98.3013 63.7894 97.8883C63.4895 97.0994 62.976 95.0118 62.976 94.6646C62.976 94.49 62.988 94.4776 63.2375 94.6235L63.5135 94.7858V94.4105C63.4735 94.0646 63.4019 93.7243 63.2999 93.3935C63.0624 92.6305 63.0384 92.6182 61.5243 92.523L60.4997 92.4689L60.1254 92.8565C59.9196 93.0832 59.7392 93.3352 59.5879 93.6065C59.4248 93.9537 59.3624 94.4776 59.4632 94.5954C59.4872 94.6365 59.7391 94.5954 60.0126 94.529C60.175 94.4769 60.3425 94.4461 60.5117 94.4365C60.5117 94.4489 60.2358 94.6906 59.8878 94.9447C58.3882 96.1494 57.8627 96.8836 57.8627 97.8212C57.8627 98.7972 58.7241 99.5601 60.075 99.7889C60.9988 99.9348 62.7985 99.9759 63.2496 99.83L63.2519 99.8272ZM83.5853 98.2349C83.9596 97.752 83.9093 97.2589 83.4342 96.6966C83.1582 96.4008 82.8462 96.1467 82.4959 95.9467C82.1456 95.746 81.7953 95.5173 81.4449 95.2789C80.8113 94.8392 80.1605 94.4283 79.4942 94.0482C78.9183 93.7147 78.3568 93.3654 77.8073 92.9928L77.5817 92.8051V89.1273C77.5817 85.5036 77.5698 85.4497 77.3946 85.5036C76.5188 85.7579 75.0695 85.8786 73.2339 85.8375L71.2471 85.8118L71.535 86.5618C72.0725 87.9795 72.3485 89.88 72.3485 92.0607C72.3485 92.8771 72.2981 93.1702 72.1109 93.7455C72.0101 94.0256 71.9237 94.3078 71.835 94.5879C71.7966 94.7084 71.9358 94.8009 72.4468 94.9625C72.8211 95.0837 73.3707 95.2043 73.685 95.2426L74.2608 95.3098L74.1985 95.9262C74.1361 96.622 74.2105 97.3562 74.3736 97.5849C74.4744 97.7185 74.8488 97.7726 76.586 97.852C77.8985 97.9192 79.3238 98.065 80.4468 98.2397C81.4209 98.402 82.4719 98.5355 82.7839 98.5355C83.3094 98.5479 83.3597 98.5225 83.5829 98.2397L83.5853 98.2349ZM63.5783 91.9758C63.6287 91.9347 63.703 91.2128 63.7295 90.3581C63.8303 87.9644 63.9166 87.6151 65.042 84.9129C65.9658 82.7068 66.4553 80.647 66.4169 79.1882L66.3929 78.3175L66.0426 78.6797C65.3179 79.4553 65.817 78.2379 66.6809 77.1541C67.3311 76.3245 67.5566 75.87 67.6551 75.1354C67.7054 74.84 67.8062 74.6937 68.2309 74.3469C69.82 73.062 71.0445 71.33 71.7678 69.3439C71.9429 68.861 72.3917 67.2173 72.7684 65.6917C73.469 62.8692 73.8433 61.6518 74.1817 61.1304C74.3065 60.9301 74.3568 60.889 74.3328 61.0226C74.1516 61.7399 74.0098 62.468 73.9081 63.2031C73.8074 63.858 73.6202 65.1421 73.4954 66.0385C73.2579 67.8723 73.0083 69.0486 72.67 69.9577L72.4445 70.5741L73.0443 72.2332C73.6682 73.9309 73.9561 75.1636 74.0065 76.3528L74.0449 77.0206L73.5578 77.1284C72.9149 77.2502 72.3412 77.6341 71.9573 78.1994C71.5326 78.8543 71.2951 79.3911 71.4079 79.5092C71.4582 79.5632 72.0701 79.6839 72.7708 79.7763C73.8577 79.9099 74.2704 79.9099 75.7078 79.8174C76.3316 79.7917 76.9459 79.725 77.5578 79.63C77.6946 79.576 77.8337 79.2832 78.0568 78.5205C78.5703 76.7689 78.6688 76.1525 78.6064 74.9222L78.5559 73.8384L78.8175 73.4763C79.4294 72.6467 79.9045 71.1494 80.1037 69.3952C80.3412 67.2559 79.9045 62.7742 79.0911 58.9217C78.7047 57.0879 78.5415 55.9913 78.5415 55.19V54.4811L77.9297 54.5479C75.7293 54.8021 73.0683 54.7354 71.4438 54.3733C70.556 54.1857 68.3197 53.4769 67.8326 53.2484L67.4463 53.0608L67.3959 53.5283C67.3575 53.7826 67.3215 54.0368 67.2711 54.3039C67.1967 54.5839 67.2207 54.6506 67.6839 55.1335C68.2597 55.7627 68.4349 56.0838 68.4349 56.5101C68.4349 56.7772 68.2981 56.9929 67.5975 57.7686C67.0951 58.3423 66.5377 58.8579 65.9346 59.3069L65.1212 59.8951L64.7709 61.1921C63.5207 65.9409 63.2832 70.2608 64.1086 73.3504L64.3077 74.1261L63.907 74.6603C62.4073 76.6789 61.5195 78.2174 61.3828 79.0752C61.3028 79.4976 61.2108 79.9173 61.1068 80.3337C60.7829 81.6589 60.5309 83.598 60.4205 85.6988C60.3436 87.4576 60.2357 89.2143 60.0966 90.969L60.0342 91.4902L60.6581 91.6908C61.0084 91.8114 61.5339 91.9449 61.8339 91.999C62.3954 92.0915 63.4343 92.0655 63.5951 91.973L63.5783 91.9758ZM75.7126 84.6176C76.6868 84.5508 77.5746 84.389 77.7497 84.2298C77.8241 84.1759 77.9129 83.8959 77.9369 83.6134L77.9993 83.1048L77.2243 83.2924C76.6124 83.4259 76.0005 83.5055 75.3862 83.5595C73.9105 83.6262 72.4253 83.5851 70.9616 83.4259C70.4744 83.3463 70.4744 83.3463 70.6232 84.0269C70.748 84.5354 70.7744 84.5611 72.0485 84.6561C72.8979 84.7357 74.0857 84.7229 75.7101 84.615L75.7126 84.6176ZM74.8991 82.2907C76.1733 82.17 77.7617 81.8772 78.0737 81.7025C78.1745 81.6486 78.2608 81.4483 78.2992 81.2197L78.412 80.5109L78.4744 80.177L78.1624 80.2438C76.7755 80.5519 75.7245 80.6444 73.625 80.6444C71.5758 80.6444 71.3383 80.6316 70.8008 80.4313C70.5942 80.3381 70.3743 80.2833 70.1505 80.2694C70.0642 80.3234 70.0498 81.0862 70.1265 81.6204C70.1769 81.9414 70.2273 81.9953 70.5272 82.0878C71.4774 82.3678 73.0779 82.4345 74.9015 82.2753L74.8991 82.2907ZM51.7056 70.2248C54.9041 69.236 59.0912 66.3313 62.5153 62.6946C63.6287 61.5029 63.7654 61.3436 63.9142 60.8094L64.1134 60.1263C64.1374 60.0723 63.9382 59.9798 63.6767 59.9131C62.9904 59.7384 62.4649 59.3121 62.4649 58.9243C62.4649 58.6957 62.3401 58.4697 61.9778 58.0536C61.3899 57.3448 61.2412 57.0366 61.1788 56.356L61.1284 55.8064L60.4278 55.2722C60.027 54.964 58.6281 54.1344 57.1404 53.3331C56.0077 52.7416 54.8989 52.0989 53.8171 51.4068C52.567 50.5105 51.7295 49.4395 51.2544 48.1708C51.1681 47.9166 51.0553 47.7034 51.0169 47.7034C50.9161 47.7034 48.1039 50.6055 46.9042 51.9693C43.9432 55.3133 41.906 58.2155 40.6175 60.9044C40.2935 61.5722 39.9432 62.3632 39.8424 62.656L39.6553 63.1902L39.8808 64.0866C40.0176 64.5694 40.3056 65.3579 40.5311 65.8253C41.3182 67.4844 42.2563 68.4861 43.8064 69.3028C45.4693 70.1863 46.9426 70.4945 49.4045 70.4534C50.729 70.4406 51.1177 70.3995 51.7032 70.212L51.7056 70.2248ZM26.4604 58.4928C28.56 56.4998 31.4586 54.3193 35.0098 52.0592C37.335 50.5747 46.3211 45.7592 50.4578 43.7919C51.2089 43.4297 51.8831 43.0958 51.9575 43.0573C52.0319 43.0034 52.2455 42.4281 52.4446 41.786C53.3204 38.817 53.7572 38.2289 55.3432 37.8411C55.5424 37.7872 55.5927 37.7204 55.5927 37.5072C55.5927 37.1194 55.8423 36.223 56.0559 35.8224C56.219 35.5142 56.219 35.5014 56.0799 35.5425C55.9935 35.5682 55.468 35.7299 54.9185 35.9046C47.2953 38.2597 40.6343 41.3879 34.8851 45.2943C28.7496 49.4678 25.2127 54.4709 24.1881 60.4627L24.1137 60.9044L24.8648 60.116C25.2655 59.6742 25.9901 58.9525 26.4652 58.5108L26.4604 58.4928ZM83.0118 59.6306C83.6237 59.2967 84.5739 57.7583 84.9242 56.5409C85.025 56.112 85.2242 55.7113 85.5121 55.3774C86.4359 54.2808 87.1991 52.2878 87.2107 50.924C87.2107 48.7975 86.0856 47.9807 84.4491 48.8899C84.2356 48.9978 84.0628 49.0774 84.0364 49.0517C83.95 48.9593 84.4107 48.4764 84.9746 48.1015C85.7113 47.5801 85.8504 47.2719 85.8504 46.1624C85.8613 45.2656 85.6123 44.3872 85.1378 43.648C84.9122 43.2859 84.8259 43.0471 84.8618 42.8981L85.0874 42.0017C85.3993 40.81 85.2866 39.4463 84.7994 38.5782C84.0748 37.2684 83.187 36.6263 81.9488 36.5184L81.2242 36.4645L81.6489 36.973C82.9111 38.4318 83.5229 40.263 83.2734 41.8297C83.1486 42.6335 83.0358 42.7928 82.3112 43.101L81.8865 43.2885L81.9369 43.9049C82.0233 44.909 81.8625 45.6436 81.2626 46.9945C80.9627 47.6777 80.7371 48.2915 80.7635 48.3583C80.8379 48.5868 81.6633 49.0132 82.3136 49.1878L82.9518 49.3497L82.5511 49.496C82.0256 49.6707 81.9129 49.925 81.9129 50.847C81.9129 51.6894 82.0256 52.0386 82.5991 52.9607C82.8606 53.3614 83.0358 53.7774 83.0622 54.0162C83.1126 54.3912 83.1006 54.4169 82.8127 54.5248C82.4863 54.6228 82.1506 54.6814 81.8121 54.6994C80.6363 54.7791 80.55 54.8202 80.0244 55.3544C79.5493 55.8372 79.5374 55.8629 79.5374 56.3971C79.5374 57.1316 79.7989 58.6186 79.9621 58.819C80.1756 59.0604 81.361 59.6897 81.8241 59.7821C82.2235 59.8894 82.6457 59.8374 83.0118 59.6357V59.6306ZM65.7019 58.6289C66.4649 57.9868 67.0648 57.3448 67.4007 56.7951C67.6142 56.4613 67.6263 56.3945 67.5255 56.112C67.3503 55.6831 66.201 54.5736 65.5627 54.2397C65.1374 54.0358 64.6875 53.8965 64.2261 53.8262L63.4391 53.7183L62.952 53.0634C61.9394 51.7253 61.378 50.6826 60.5765 48.6614C59.8759 46.9483 59.264 45.9466 58.2898 44.9553C57.8891 44.5546 57.6035 44.2207 57.6275 44.2207C57.6779 44.2207 58.153 44.475 58.7025 44.7832C59.6143 45.3046 59.7271 45.3457 60.1398 45.2789C61.6275 45.0914 62.94 43.2602 63.4151 40.6919C63.5519 39.9702 63.8278 39.2331 64.1158 38.7913C64.1278 38.7785 64.7037 39.1792 65.3779 39.7005C67.0911 40.9975 67.4655 41.1979 68.4397 41.239C69.0779 41.2647 69.4403 41.2133 70.5896 40.9179C73.0395 40.2758 75.6886 40.0216 77.301 40.2501C78.2129 40.3837 79.5253 40.8126 80.4995 41.3057C81.4618 41.7886 81.6489 41.8143 81.9609 41.5189C82.2224 41.2775 82.2224 41.239 82.2224 40.3426C82.2104 39.0174 81.7593 37.5868 81.0731 36.7316C80.7227 36.2898 79.7365 35.5682 78.7599 35.0185C78.4127 34.8214 78.0672 34.6211 77.7234 34.4176C77.2602 34.1222 76.7371 34.1633 75.3118 34.5639C73.661 35.0185 73.2243 35.0185 71.3383 34.4971C69.7378 34.0683 69.6394 34.0554 68.063 34.3225C67.2255 34.456 65.126 34.3765 64.4253 34.1761C64.075 34.0683 63.7247 33.9629 63.3887 33.8294C62.7768 33.5752 61.7139 33.5341 60.7517 33.7215C58.8393 34.0837 57.39 35.1932 56.8645 36.7033C56.5886 37.4661 56.627 37.8283 56.9893 38.0671C57.5651 38.4549 58.3258 39.5131 58.3258 39.9265C58.3258 39.9522 58.1386 39.7802 57.9251 39.5388C57.3876 38.9378 56.9005 38.6681 56.3246 38.6681C55.952 38.6792 55.5897 38.8014 55.2785 39.021C54.9673 39.2406 54.7196 39.5489 54.5634 39.9111C54.3952 40.3837 54.2534 40.8665 54.1386 41.3571C53.7883 42.7208 53.4764 43.4451 52.8141 44.4083C52.2263 45.2789 52.1399 45.6667 52.351 46.6427C52.8765 49.1031 53.7883 50.0945 57.5987 52.4085C59.5975 53.6259 60.6221 54.309 61.3732 54.91C61.949 55.3646 61.961 55.3929 61.9107 55.7396C61.7978 56.5435 62.2729 57.4115 63.2112 58.1204C63.4487 58.295 63.5975 58.4826 63.5975 58.6161C63.5975 58.8575 64.2357 59.1914 64.6964 59.1914C64.958 59.1914 65.1596 59.0707 65.6971 58.6289H65.7019ZM81.1114 54.119C82.5607 54.1729 82.6351 54.0522 81.8625 53.0891C81.0491 52.0849 80.8259 51.2708 81.1258 50.3744L81.2506 50.0277L80.7371 49.7606C80.5619 49.6681 80.3868 49.5731 80.2116 49.5063C80.1252 49.8685 80.0365 50.2152 79.9621 50.5773C79.7749 51.394 79.5493 53.5077 79.5374 54.4041C79.5374 54.4837 79.6621 54.458 79.8757 54.3116C80.1756 54.1241 80.3268 54.0984 81.1138 54.1241L81.1114 54.119ZM76.2501 54.0394C77.1258 53.9854 78.0257 53.9186 78.2632 53.8776L78.6999 53.8108L78.7503 52.2724C78.8247 50.0791 79.1247 48.782 80.0125 46.7069C80.6363 45.2352 80.9123 43.9511 80.7755 42.9879C80.7251 42.5745 80.7011 42.5462 80.1756 42.3048C79.2134 41.8958 78.2113 41.6038 77.1882 41.4342C76.2021 41.2877 73.301 41.3674 72.2141 41.5959C71.763 41.6756 70.9399 41.863 70.3905 42.0095C69.0276 42.3433 68.3029 42.3048 67.2663 41.8219C66.2417 41.3391 65.5915 40.9 64.9796 40.2836C64.4925 39.8007 64.4421 39.775 64.3173 39.9368C64.2165 40.0575 64.1662 40.4196 64.1302 41.1953C64.0918 42.387 63.9166 43.0136 63.4295 43.856C63.3213 44.0294 63.2289 44.2134 63.1536 44.4057C63.1536 44.4467 63.5279 44.9142 63.991 45.4227C65.5915 47.2026 66.3785 47.6571 67.6407 47.5621C68.0534 47.521 68.3413 47.5364 68.3413 47.5878C68.3413 47.6957 67.5278 48.3762 67.1919 48.5638C67.0288 48.6562 66.9928 48.7512 67.0168 48.9515L67.2159 50.3564C67.3287 51.1603 67.4151 51.5327 67.5278 51.6406C67.8278 51.9077 69.3779 52.7655 70.3521 53.1919C71.6262 53.7415 72.3268 53.9418 73.301 54.0343C74.5008 54.1421 74.5248 54.1421 76.2501 54.0343V54.0394ZM65.9154 52.5677C65.9394 52.5266 65.853 51.751 65.6898 50.8547C65.4907 49.6373 65.3779 49.1956 65.2531 49.0748C65.1667 48.9952 64.7037 48.646 64.2405 48.2864C63.6321 47.8181 63.0556 47.3039 62.5153 46.7479L61.6539 45.8388L61.1908 46.0931L60.7037 46.373C60.7447 46.5819 60.8117 46.784 60.9029 46.974C61.0396 47.295 61.3156 48.0835 61.5147 48.7255C62.0402 50.3975 62.4529 51.2014 63.4895 52.6576L63.8758 53.2073L64.6125 53.3279C65.0252 53.3947 65.4379 53.4898 65.5507 53.5283C65.7259 53.6079 65.7499 53.5694 65.8002 53.1405C65.8242 52.953 65.8626 52.7526 65.913 52.5652L65.9154 52.5677ZM81.7497 35.9277C82.388 35.8609 82.5007 35.7659 82.2248 35.4603C82.0496 35.2728 81.6489 35.26 81.325 35.4192C81.1114 35.5271 81.0635 35.4988 80.7251 35.111C80.3748 34.6975 80.3508 34.6821 79.9117 34.736C79.5109 34.7899 79.4486 34.7771 79.3982 34.6025C79.2421 34.3156 79.0482 34.0543 78.8223 33.8268C78.5385 33.4816 78.1836 33.2117 77.7857 33.0383C77.0107 32.7173 76.574 32.7584 75.8349 33.2002C73.697 34.4432 73.7857 34.4304 71.7222 33.8679C69.7978 33.3465 68.3605 32.8123 67.8974 32.4759C67.5111 32.1959 66.6857 31.8877 65.997 31.7927C65.4835 31.7131 65.1596 31.8338 64.6724 32.2602L64.4109 32.4887L64.6484 32.9305C64.9724 33.5469 64.9364 33.5854 64.4493 33.1308C63.9238 32.6634 63.2999 32.3424 62.8992 32.327C62.6113 32.327 61.7619 32.7276 61.6611 32.9023C61.6227 32.9562 61.8867 33.0229 62.237 33.0486C62.5993 33.0897 63.0984 33.2233 63.4367 33.3697C64.3125 33.7703 64.7613 33.9039 65.5603 33.9861C66.4361 34.0785 68.0221 33.9732 68.2093 33.8114C68.3101 33.719 68.5836 33.7036 69.1595 33.7575C69.9225 33.8114 70.2345 33.891 72.0461 34.4124C73.0971 34.7206 73.8337 34.6923 75.0839 34.3328C75.6598 34.1581 76.3844 33.9861 76.6843 33.945C77.1978 33.891 77.2962 33.9193 78.0977 34.3071C79.3718 34.9235 80.0484 35.3113 80.4228 35.6709C80.7971 36.0176 80.8475 36.0176 81.7473 35.938L81.7497 35.9277ZM74.6256 33.588L75.3886 33.1591L75.3646 32.3295C75.3526 31.7542 75.3262 31.1918 75.3022 30.6319L75.2398 29.7766L74.4768 30.4059C74.0257 30.7808 73.589 31.0607 73.4018 31.1018C72.8524 31.2097 70.1409 31.1018 69.889 30.9555C69.5533 30.6901 69.2394 30.3945 68.9508 30.072L68.2501 29.3092L68.2381 29.7638C68.2381 30.0052 68.2141 30.4187 68.1638 30.673C68.1014 31.1558 68.1014 31.1686 68.5884 31.8236C68.85 32.1857 69.0635 32.5067 69.0635 32.5452C69.0635 32.7995 72.6748 34.004 73.4882 34.0169C73.7498 34.0169 74.0761 33.8962 74.6256 33.588ZM73.1763 30.5497C74.0761 30.3622 74.5128 29.6662 74.8511 27.9017C75.2014 26.0012 75.3766 23.0194 75.2135 21.7481C75.0623 20.5975 73.8625 20.089 71.5758 20.1686C70.1505 20.2225 69.5626 20.3689 69.0756 20.8107C68.7756 21.0778 68.7756 21.106 68.6388 22.3747C68.3893 24.8095 68.7636 28.2742 69.4139 29.5711C69.7258 30.2004 70.0018 30.4264 70.5752 30.5343C71.2255 30.655 72.6124 30.655 73.1739 30.5471L73.1763 30.5497Z" fill="url(#paint1_linear_86_202)"/>
<path d="M60.2166 100.924C59.216 100.736 58.1794 100.228 57.5916 99.6656C57.1925 99.217 56.9647 98.6253 56.9533 98.0061C56.9533 97.3767 57.2532 96.4932 57.7283 95.6125C58.0162 95.1166 58.2418 94.5824 58.4026 94.0201C58.5034 93.6325 58.7145 93.0031 58.8777 92.6024L59.1656 91.8682L59.24 86.9599C59.2784 84.2452 59.3528 81.7308 59.4152 81.3404C59.5783 80.2155 59.8519 79.1188 60.2142 78.0504L60.4902 77.3416L60.0894 77.0873C59.7271 76.8459 59.4271 76.512 58.2394 74.9993C56.7781 73.1527 54.8537 72.1357 52.1279 71.7889C51.2401 71.6964 50.3403 71.6271 49.4404 71.5886C45.4405 71.3882 43.1537 70.4919 41.0926 68.3243C39.5545 66.7063 38.7555 64.8185 38.4315 62.0371C37.9948 58.2771 37.5078 56.3509 36.6079 54.7867C36.3861 54.4005 36.1306 54.0375 35.8449 53.7029L35.4826 53.3151L34.6835 53.8647C34.2468 54.1729 33.6325 54.5607 33.3326 54.7354C32.332 55.3235 31.3818 55.9784 30.47 56.6873C28.2337 58.4261 25.7958 60.6065 24.4593 62.0371C23.8594 62.6792 23.5475 62.9591 23.4083 62.9334C22.4965 62.787 23.1947 58.5596 24.6824 55.3749C26.5828 51.2682 29.7814 47.4825 33.4814 44.9271C36.5192 42.8262 41.4309 39.9368 43.7033 38.9198C47.7392 37.1143 52.9629 35.1598 56.5381 34.117C57.2892 33.8885 57.7499 33.6882 58.0619 33.4621C58.7625 32.9407 59.4488 32.6865 60.2358 32.6736C60.8981 32.6608 60.9605 32.648 61.5987 32.1908C62.3497 31.6695 62.5729 31.6412 63.3239 31.9237L63.8111 32.1112L64.4109 31.6695L65.0108 31.2405L65.8722 31.2534C66.5345 31.2662 66.8344 31.2405 67.1224 31.107C67.4847 30.9323 67.4967 30.9067 67.5975 30.2646C67.823 28.8726 67.847 28.1766 67.7102 27.3342C67.5351 26.2247 67.5111 21.9176 67.6862 21.0726C67.8734 20.1634 67.9981 19.976 68.6364 19.6421C69.5866 19.1464 70.2993 19 71.9358 19C73.9345 19 74.9471 19.2954 75.6982 20.071C76.3724 20.767 76.4852 22.3979 76.1349 26.2247C75.9213 28.4308 75.8973 29.0472 75.9597 30.4906C75.9837 31.4126 76.0461 32.2833 76.0725 32.404C76.1229 32.6325 76.1733 32.6454 76.8979 32.6582C77.6105 32.6711 77.7353 32.7122 78.4096 33.0872C79.0598 33.4493 79.547 33.891 79.6477 34.2121C79.6597 34.2789 79.7725 34.2789 79.9717 34.2121C80.358 34.0913 80.6963 34.2249 80.9723 34.5871C81.1354 34.8156 81.2338 34.8542 81.6105 34.8542C82.124 34.8542 82.3112 34.9877 82.7359 35.658C82.9346 35.9589 83.2069 36.1952 83.5229 36.3412C84.2236 36.7162 85.1738 37.7589 85.5361 38.5885C86.0976 39.8187 86.2103 41.2492 85.86 42.5334C85.7352 43.0162 85.7352 43.029 85.9968 43.4965C86.5463 44.5007 86.7478 45.7309 86.5223 46.7736L86.3975 47.39L86.7718 47.7907C88.6337 49.7837 88.3579 53.0352 86.0856 55.9373C85.8316 56.2688 85.6172 56.6329 85.4473 57.0212C85.0106 58.2642 84.5091 59.1349 83.8613 59.8566L83.199 60.5783H82.5247C81.8505 60.5783 80.9003 60.3369 80.3244 60.0158C80.0868 59.8822 80.0749 59.8822 80.1252 60.0415C80.2764 60.6297 80.6507 63.0233 80.7755 64.3486C80.9746 66.3827 80.9123 69.3387 80.6507 70.6101C80.4596 71.5517 80.1394 72.4578 79.7005 73.2991C79.451 73.728 79.439 73.8205 79.487 74.3418C79.5614 75.0763 79.4006 76.3091 79.1247 77.1233C78.7863 78.0736 78.6615 78.5153 78.5872 78.9956C78.5248 79.4091 78.5248 79.4091 78.8007 79.4091C79.163 79.4091 79.3622 79.6376 79.3622 80.0923C79.3622 80.2926 79.199 81.3764 78.9999 82.4859C78.4504 85.6038 78.412 85.9505 78.412 88.9732C78.4 92.0915 78.4 92.0634 79.0623 92.5305L80.55 93.5606C81.8298 94.4694 83.2004 95.2235 84.6363 95.8077C86.7238 96.6912 87.0116 96.9172 87.0116 97.6671C87.0116 98.0013 86.9496 98.1219 86.6879 98.389C85.8888 99.2184 84.3124 99.406 81.1378 99.0437C79.4882 98.878 77.8324 98.7937 76.1756 98.7896C71.8014 98.7225 71.1631 98.5609 70.5896 97.3973C70.2657 96.7295 70.3281 95.859 70.7768 94.4283C70.976 93.7996 71.1511 93.1572 71.3023 92.5024C71.6022 90.9512 71.4031 89.1047 70.7024 87.0189L70.1025 85.2391C69.5146 83.4336 69.1907 80.1282 69.5411 79.3808C69.6034 79.2344 69.7162 79.2062 70.0162 79.219L70.3905 79.2601L70.7024 78.5641C70.9399 78.0145 71.2015 77.6549 71.9141 76.8922L72.8259 75.9162L72.7756 75.2869C72.7372 74.6859 72.0005 71.7684 71.8997 71.7812C71.8613 71.7812 71.6622 72.0765 71.4367 72.449C70.8871 73.3325 69.6754 74.6962 68.9867 75.1919C68.6868 75.4051 68.4373 75.6594 68.4373 75.7416C68.4253 76.1036 68.1373 76.8125 67.787 77.3056C67.4487 77.7885 67.4247 77.8681 67.4751 78.2944C67.5614 78.9236 67.3743 80.9423 67.1512 82.0005C66.9489 82.7862 66.6723 83.5478 66.3257 84.2735C65.4643 86.1868 64.814 87.8973 64.6509 88.6883C64.533 89.4499 64.4577 90.2184 64.4253 90.9895C64.3869 91.8991 64.3006 92.7825 64.2382 92.9695C64.1518 93.2243 64.1518 93.4243 64.2261 93.8119C64.2885 94.092 64.3269 94.7214 64.3125 95.2173C64.3006 95.9001 64.3509 96.3419 64.5381 97.1432C64.862 98.5068 64.9244 99.3649 64.7757 99.8731C64.6749 100.194 64.5765 100.315 64.2382 100.49C63.4871 100.903 61.3636 101.132 60.2142 100.919L60.2166 100.924ZM63.2519 99.8272C63.6887 99.6937 64.0654 99.293 64.0654 98.9307C64.0654 98.7691 63.9406 98.3013 63.7894 97.8883C63.4895 97.0994 62.976 95.0118 62.976 94.6646C62.976 94.49 62.988 94.4776 63.2375 94.6235L63.5135 94.7858V94.4105C63.4735 94.0646 63.4019 93.7243 63.2999 93.3935C63.0624 92.6305 63.0384 92.6182 61.5243 92.523L60.4997 92.4689L60.1254 92.8565C59.9196 93.0832 59.7392 93.3352 59.5879 93.6065C59.4248 93.9537 59.3624 94.4776 59.4632 94.5954C59.4872 94.6365 59.7391 94.5954 60.0126 94.529C60.175 94.4769 60.3425 94.4461 60.5117 94.4365C60.5117 94.4489 60.2358 94.6906 59.8878 94.9447C58.3882 96.1494 57.8627 96.8836 57.8627 97.8212C57.8627 98.7972 58.7241 99.5601 60.075 99.7889C60.9988 99.9348 62.7985 99.9759 63.2496 99.83L63.2519 99.8272ZM83.5853 98.2349C83.9596 97.752 83.9093 97.2589 83.4342 96.6966C83.1582 96.4008 82.8462 96.1467 82.4959 95.9467C82.1456 95.746 81.7953 95.5173 81.4449 95.2789C80.8113 94.8392 80.1605 94.4283 79.4942 94.0482C78.9183 93.7147 78.3568 93.3654 77.8073 92.9928L77.5817 92.8051V89.1273C77.5817 85.5036 77.5698 85.4497 77.3946 85.5036C76.5188 85.7579 75.0695 85.8786 73.2339 85.8375L71.2471 85.8118L71.535 86.5618C72.0725 87.9795 72.3485 89.88 72.3485 92.0607C72.3485 92.8771 72.2981 93.1702 72.1109 93.7455C72.0101 94.0256 71.9237 94.3078 71.835 94.5879C71.7966 94.7084 71.9358 94.8009 72.4468 94.9625C72.8211 95.0837 73.3707 95.2043 73.685 95.2426L74.2608 95.3098L74.1985 95.9262C74.1361 96.622 74.2105 97.3562 74.3736 97.5849C74.4744 97.7185 74.8488 97.7726 76.586 97.852C77.8985 97.9192 79.3238 98.065 80.4468 98.2397C81.4209 98.402 82.4719 98.5355 82.7839 98.5355C83.3094 98.5479 83.3597 98.5225 83.5829 98.2397L83.5853 98.2349ZM63.5783 91.9758C63.6287 91.9347 63.703 91.2128 63.7295 90.3581C63.8303 87.9644 63.9166 87.6151 65.042 84.9129C65.9658 82.7068 66.4553 80.647 66.4169 79.1882L66.3929 78.3175L66.0426 78.6797C65.3179 79.4553 65.817 78.2379 66.6809 77.1541C67.3311 76.3245 67.5566 75.87 67.6551 75.1354C67.7054 74.84 67.8062 74.6937 68.2309 74.3469C69.82 73.062 71.0445 71.33 71.7678 69.3439C71.9429 68.861 72.3917 67.2173 72.7684 65.6917C73.469 62.8692 73.8433 61.6518 74.1817 61.1304C74.3065 60.9301 74.3568 60.889 74.3328 61.0226C74.1516 61.7399 74.0098 62.468 73.9081 63.2031C73.8074 63.858 73.6202 65.1421 73.4954 66.0385C73.2579 67.8723 73.0083 69.0486 72.67 69.9577L72.4445 70.5741L73.0443 72.2332C73.6682 73.9309 73.9561 75.1636 74.0065 76.3528L74.0449 77.0206L73.5578 77.1284C72.9149 77.2502 72.3412 77.6341 71.9573 78.1994C71.5326 78.8543 71.2951 79.3911 71.4079 79.5092C71.4582 79.5632 72.0701 79.6839 72.7708 79.7763C73.8577 79.9099 74.2704 79.9099 75.7078 79.8174C76.3316 79.7917 76.9459 79.725 77.5578 79.63C77.6946 79.576 77.8337 79.2832 78.0568 78.5205C78.5703 76.7689 78.6688 76.1525 78.6064 74.9222L78.5559 73.8384L78.8175 73.4763C79.4294 72.6467 79.9045 71.1494 80.1037 69.3952C80.3412 67.2559 79.9045 62.7742 79.0911 58.9217C78.7047 57.0879 78.5415 55.9913 78.5415 55.19V54.4811L77.9297 54.5479C75.7293 54.8021 73.0683 54.7354 71.4438 54.3733C70.556 54.1857 68.3197 53.4769 67.8326 53.2484L67.4463 53.0608L67.3959 53.5283C67.3575 53.7826 67.3215 54.0368 67.2711 54.3039C67.1967 54.5839 67.2207 54.6506 67.6839 55.1335C68.2597 55.7627 68.4349 56.0838 68.4349 56.5101C68.4349 56.7772 68.2981 56.9929 67.5975 57.7686C67.0951 58.3423 66.5377 58.8579 65.9346 59.3069L65.1212 59.8951L64.7709 61.1921C63.5207 65.9409 63.2832 70.2608 64.1086 73.3504L64.3077 74.1261L63.907 74.6603C62.4073 76.6789 61.5195 78.2174 61.3828 79.0752C61.3028 79.4976 61.2108 79.9173 61.1068 80.3337C60.7829 81.6589 60.5309 83.598 60.4205 85.6988C60.3436 87.4576 60.2357 89.2143 60.0966 90.969L60.0342 91.4902L60.6581 91.6908C61.0084 91.8114 61.5339 91.9449 61.8339 91.999C62.3954 92.0915 63.4343 92.0655 63.5951 91.973L63.5783 91.9758ZM75.7126 84.6176C76.6868 84.5508 77.5746 84.389 77.7497 84.2298C77.8241 84.1759 77.9129 83.8959 77.9369 83.6134L77.9993 83.1048L77.2243 83.2924C76.6124 83.4259 76.0005 83.5055 75.3862 83.5595C73.9105 83.6262 72.4253 83.5851 70.9616 83.4259C70.4744 83.3463 70.4744 83.3463 70.6232 84.0269C70.748 84.5354 70.7744 84.5611 72.0485 84.6561C72.8979 84.7357 74.0857 84.7229 75.7101 84.615L75.7126 84.6176ZM74.8991 82.2907C76.1733 82.17 77.7617 81.8772 78.0737 81.7025C78.1745 81.6486 78.2608 81.4483 78.2992 81.2197L78.412 80.5109L78.4744 80.177L78.1624 80.2438C76.7755 80.5519 75.7245 80.6444 73.625 80.6444C71.5758 80.6444 71.3383 80.6316 70.8008 80.4313C70.5942 80.3381 70.3743 80.2833 70.1505 80.2694C70.0642 80.3234 70.0498 81.0862 70.1265 81.6204C70.1769 81.9414 70.2273 81.9953 70.5272 82.0878C71.4774 82.3678 73.0779 82.4345 74.9015 82.2753L74.8991 82.2907ZM51.7056 70.2248C54.9041 69.236 59.0912 66.3313 62.5153 62.6946C63.6287 61.5029 63.7654 61.3436 63.9142 60.8094L64.1134 60.1263C64.1374 60.0723 63.9382 59.9798 63.6767 59.9131C62.9904 59.7384 62.4649 59.3121 62.4649 58.9243C62.4649 58.6957 62.3401 58.4697 61.9778 58.0536C61.3899 57.3448 61.2412 57.0366 61.1788 56.356L61.1284 55.8064L60.4278 55.2722C60.027 54.964 58.6281 54.1344 57.1404 53.3331C56.0077 52.7416 54.8989 52.0989 53.8171 51.4068C52.567 50.5105 51.7295 49.4395 51.2544 48.1708C51.1681 47.9166 51.0553 47.7034 51.0169 47.7034C50.9161 47.7034 48.1039 50.6055 46.9042 51.9693C43.9432 55.3133 41.906 58.2155 40.6175 60.9044C40.2935 61.5722 39.9432 62.3632 39.8424 62.656L39.6553 63.1902L39.8808 64.0866C40.0176 64.5694 40.3056 65.3579 40.5311 65.8253C41.3182 67.4844 42.2563 68.4861 43.8064 69.3028C45.4693 70.1863 46.9426 70.4945 49.4045 70.4534C50.729 70.4406 51.1177 70.3995 51.7032 70.212L51.7056 70.2248ZM26.4604 58.4928C28.56 56.4998 31.4586 54.3193 35.0098 52.0592C37.335 50.5747 46.3211 45.7592 50.4578 43.7919C51.2089 43.4297 51.8831 43.0958 51.9575 43.0573C52.0319 43.0034 52.2455 42.4281 52.4446 41.786C53.3204 38.817 53.7572 38.2289 55.3432 37.8411C55.5424 37.7872 55.5927 37.7204 55.5927 37.5072C55.5927 37.1194 55.8423 36.223 56.0559 35.8224C56.219 35.5142 56.219 35.5014 56.0799 35.5425C55.9935 35.5682 55.468 35.7299 54.9185 35.9046C47.2953 38.2597 40.6343 41.3879 34.8851 45.2943C28.7496 49.4678 25.2127 54.4709 24.1881 60.4627L24.1137 60.9044L24.8648 60.116C25.2655 59.6742 25.9901 58.9525 26.4652 58.5108L26.4604 58.4928ZM83.0118 59.6306C83.6237 59.2967 84.5739 57.7583 84.9242 56.5409C85.025 56.112 85.2242 55.7113 85.5121 55.3774C86.4359 54.2808 87.1991 52.2878 87.2107 50.924C87.2107 48.7975 86.0856 47.9807 84.4491 48.8899C84.2356 48.9978 84.0628 49.0774 84.0364 49.0517C83.95 48.9593 84.4107 48.4764 84.9746 48.1015C85.7113 47.5801 85.8504 47.2719 85.8504 46.1624C85.8613 45.2656 85.6123 44.3872 85.1378 43.648C84.9122 43.2859 84.8259 43.0471 84.8618 42.8981L85.0874 42.0017C85.3993 40.81 85.2866 39.4463 84.7994 38.5782C84.0748 37.2684 83.187 36.6263 81.9488 36.5184L81.2242 36.4645L81.6489 36.973C82.9111 38.4318 83.5229 40.263 83.2734 41.8297C83.1486 42.6335 83.0358 42.7928 82.3112 43.101L81.8865 43.2885L81.9369 43.9049C82.0233 44.909 81.8625 45.6436 81.2626 46.9945C80.9627 47.6777 80.7371 48.2915 80.7635 48.3583C80.8379 48.5868 81.6633 49.0132 82.3136 49.1878L82.9518 49.3497L82.5511 49.496C82.0256 49.6707 81.9129 49.925 81.9129 50.847C81.9129 51.6894 82.0256 52.0386 82.5991 52.9607C82.8606 53.3614 83.0358 53.7774 83.0622 54.0162C83.1126 54.3912 83.1006 54.4169 82.8127 54.5248C82.4863 54.6228 82.1506 54.6814 81.8121 54.6994C80.6363 54.7791 80.55 54.8202 80.0244 55.3544C79.5493 55.8372 79.5374 55.8629 79.5374 56.3971C79.5374 57.1316 79.7989 58.6186 79.9621 58.819C80.1756 59.0604 81.361 59.6897 81.8241 59.7821C82.2235 59.8894 82.6457 59.8374 83.0118 59.6357V59.6306ZM65.7019 58.6289C66.4649 57.9868 67.0648 57.3448 67.4007 56.7951C67.6142 56.4613 67.6263 56.3945 67.5255 56.112C67.3503 55.6831 66.201 54.5736 65.5627 54.2397C65.1374 54.0358 64.6875 53.8965 64.2261 53.8262L63.4391 53.7183L62.952 53.0634C61.9394 51.7253 61.378 50.6826 60.5765 48.6614C59.8759 46.9483 59.264 45.9466 58.2898 44.9553C57.8891 44.5546 57.6035 44.2207 57.6275 44.2207C57.6779 44.2207 58.153 44.475 58.7025 44.7832C59.6143 45.3046 59.7271 45.3457 60.1398 45.2789C61.6275 45.0914 62.94 43.2602 63.4151 40.6919C63.5519 39.9702 63.8278 39.2331 64.1158 38.7913C64.1278 38.7785 64.7037 39.1792 65.3779 39.7005C67.0911 40.9975 67.4655 41.1979 68.4397 41.239C69.0779 41.2647 69.4403 41.2133 70.5896 40.9179C73.0395 40.2758 75.6886 40.0216 77.301 40.2501C78.2129 40.3837 79.5253 40.8126 80.4995 41.3057C81.4618 41.7886 81.6489 41.8143 81.9609 41.5189C82.2224 41.2775 82.2224 41.239 82.2224 40.3426C82.2104 39.0174 81.7593 37.5868 81.0731 36.7316C80.7227 36.2898 79.7365 35.5682 78.7599 35.0185C78.4127 34.8214 78.0672 34.6211 77.7234 34.4176C77.2602 34.1222 76.7371 34.1633 75.3118 34.5639C73.661 35.0185 73.2243 35.0185 71.3383 34.4971C69.7378 34.0683 69.6394 34.0554 68.063 34.3225C67.2255 34.456 65.126 34.3765 64.4253 34.1761C64.075 34.0683 63.7247 33.9629 63.3887 33.8294C62.7768 33.5752 61.7139 33.5341 60.7517 33.7215C58.8393 34.0837 57.39 35.1932 56.8645 36.7033C56.5886 37.4661 56.627 37.8283 56.9893 38.0671C57.5651 38.4549 58.3258 39.5131 58.3258 39.9265C58.3258 39.9522 58.1386 39.7802 57.9251 39.5388C57.3876 38.9378 56.9005 38.6681 56.3246 38.6681C55.952 38.6792 55.5897 38.8014 55.2785 39.021C54.9673 39.2406 54.7196 39.5489 54.5634 39.9111C54.3952 40.3837 54.2534 40.8665 54.1386 41.3571C53.7883 42.7208 53.4764 43.4451 52.8141 44.4083C52.2263 45.2789 52.1399 45.6667 52.351 46.6427C52.8765 49.1031 53.7883 50.0945 57.5987 52.4085C59.5975 53.6259 60.6221 54.309 61.3732 54.91C61.949 55.3646 61.961 55.3929 61.9107 55.7396C61.7978 56.5435 62.2729 57.4115 63.2112 58.1204C63.4487 58.295 63.5975 58.4826 63.5975 58.6161C63.5975 58.8575 64.2357 59.1914 64.6964 59.1914C64.958 59.1914 65.1596 59.0707 65.6971 58.6289H65.7019ZM81.1114 54.119C82.5607 54.1729 82.6351 54.0522 81.8625 53.0891C81.0491 52.0849 80.8259 51.2708 81.1258 50.3744L81.2506 50.0277L80.7371 49.7606C80.5619 49.6681 80.3868 49.5731 80.2116 49.5063C80.1252 49.8685 80.0365 50.2152 79.9621 50.5773C79.7749 51.394 79.5493 53.5077 79.5374 54.4041C79.5374 54.4837 79.6621 54.458 79.8757 54.3116C80.1756 54.1241 80.3268 54.0984 81.1138 54.1241L81.1114 54.119ZM76.2501 54.0394C77.1258 53.9854 78.0257 53.9186 78.2632 53.8776L78.6999 53.8108L78.7503 52.2724C78.8247 50.0791 79.1247 48.782 80.0125 46.7069C80.6363 45.2352 80.9123 43.9511 80.7755 42.9879C80.7251 42.5745 80.7011 42.5462 80.1756 42.3048C79.2134 41.8958 78.2113 41.6038 77.1882 41.4342C76.2021 41.2877 73.301 41.3674 72.2141 41.5959C71.763 41.6756 70.9399 41.863 70.3905 42.0095C69.0276 42.3433 68.3029 42.3048 67.2663 41.8219C66.2417 41.3391 65.5915 40.9 64.9796 40.2836C64.4925 39.8007 64.4421 39.775 64.3173 39.9368C64.2165 40.0575 64.1662 40.4196 64.1302 41.1953C64.0918 42.387 63.9166 43.0136 63.4295 43.856C63.3213 44.0294 63.2289 44.2134 63.1536 44.4057C63.1536 44.4467 63.5279 44.9142 63.991 45.4227C65.5915 47.2026 66.3785 47.6571 67.6407 47.5621C68.0534 47.521 68.3413 47.5364 68.3413 47.5878C68.3413 47.6957 67.5278 48.3762 67.1919 48.5638C67.0288 48.6562 66.9928 48.7512 67.0168 48.9515L67.2159 50.3564C67.3287 51.1603 67.4151 51.5327 67.5278 51.6406C67.8278 51.9077 69.3779 52.7655 70.3521 53.1919C71.6262 53.7415 72.3268 53.9418 73.301 54.0343C74.5008 54.1421 74.5248 54.1421 76.2501 54.0343V54.0394ZM65.9154 52.5677C65.9394 52.5266 65.853 51.751 65.6898 50.8547C65.4907 49.6373 65.3779 49.1956 65.2531 49.0748C65.1667 48.9952 64.7037 48.646 64.2405 48.2864C63.6321 47.8181 63.0556 47.3039 62.5153 46.7479L61.6539 45.8388L61.1908 46.0931L60.7037 46.373C60.7447 46.5819 60.8117 46.784 60.9029 46.974C61.0396 47.295 61.3156 48.0835 61.5147 48.7255C62.0402 50.3975 62.4529 51.2014 63.4895 52.6576L63.8758 53.2073L64.6125 53.3279C65.0252 53.3947 65.4379 53.4898 65.5507 53.5283C65.7259 53.6079 65.7499 53.5694 65.8002 53.1405C65.8242 52.953 65.8626 52.7526 65.913 52.5652L65.9154 52.5677ZM81.7497 35.9277C82.388 35.8609 82.5007 35.7659 82.2248 35.4603C82.0496 35.2728 81.6489 35.26 81.325 35.4192C81.1114 35.5271 81.0635 35.4988 80.7251 35.111C80.3748 34.6975 80.3508 34.6821 79.9117 34.736C79.5109 34.7899 79.4486 34.7771 79.3982 34.6025C79.2421 34.3156 79.0482 34.0543 78.8223 33.8268C78.5385 33.4816 78.1836 33.2117 77.7857 33.0383C77.0107 32.7173 76.574 32.7584 75.8349 33.2002C73.697 34.4432 73.7857 34.4304 71.7222 33.8679C69.7978 33.3465 68.3605 32.8123 67.8974 32.4759C67.5111 32.1959 66.6857 31.8877 65.997 31.7927C65.4835 31.7131 65.1596 31.8338 64.6724 32.2602L64.4109 32.4887L64.6484 32.9305C64.9724 33.5469 64.9364 33.5854 64.4493 33.1308C63.9238 32.6634 63.2999 32.3424 62.8992 32.327C62.6113 32.327 61.7619 32.7276 61.6611 32.9023C61.6227 32.9562 61.8867 33.0229 62.237 33.0486C62.5993 33.0897 63.0984 33.2233 63.4367 33.3697C64.3125 33.7703 64.7613 33.9039 65.5603 33.9861C66.4361 34.0785 68.0221 33.9732 68.2093 33.8114C68.3101 33.719 68.5836 33.7036 69.1595 33.7575C69.9225 33.8114 70.2345 33.891 72.0461 34.4124C73.0971 34.7206 73.8337 34.6923 75.0839 34.3328C75.6598 34.1581 76.3844 33.9861 76.6843 33.945C77.1978 33.891 77.2962 33.9193 78.0977 34.3071C79.3718 34.9235 80.0484 35.3113 80.4228 35.6709C80.7971 36.0176 80.8475 36.0176 81.7473 35.938L81.7497 35.9277ZM74.6256 33.588L75.3886 33.1591L75.3646 32.3295C75.3526 31.7542 75.3262 31.1918 75.3022 30.6319L75.2398 29.7766L74.4768 30.4059C74.0257 30.7808 73.589 31.0607 73.4018 31.1018C72.8524 31.2097 70.1409 31.1018 69.889 30.9555C69.5533 30.6901 69.2394 30.3945 68.9508 30.072L68.2501 29.3092L68.2381 29.7638C68.2381 30.0052 68.2141 30.4187 68.1638 30.673C68.1014 31.1558 68.1014 31.1686 68.5884 31.8236C68.85 32.1857 69.0635 32.5067 69.0635 32.5452C69.0635 32.7995 72.6748 34.004 73.4882 34.0169C73.7498 34.0169 74.0761 33.8962 74.6256 33.588ZM73.1763 30.5497C74.0761 30.3622 74.5128 29.6662 74.8511 27.9017C75.2014 26.0012 75.3766 23.0194 75.2135 21.7481C75.0623 20.5975 73.8625 20.089 71.5758 20.1686C70.1505 20.2225 69.5626 20.3689 69.0756 20.8107C68.7756 21.0778 68.7756 21.106 68.6388 22.3747C68.3893 24.8095 68.7636 28.2742 69.4139 29.5711C69.7258 30.2004 70.0018 30.4264 70.5752 30.5343C71.2255 30.655 72.6124 30.655 73.1739 30.5471L73.1763 30.5497Z" fill="url(#paint2_linear_86_202)"/>
<path d="M29 21V29.6429C26.8151 29.6429 25.1108 29.9833 23.8864 30.6643C22.6619 31.319 22.1338 32.6416 22.3019 34.6321L23.4182 46.2213C23.7063 49.1546 23.4062 51.525 22.5179 53.332C21.6536 55.139 20.3212 56.5275 18.5207 57.4964C16.7442 58.4395 14.6435 59.1071 12.2188 59.4999C14.7875 59.9189 16.9602 60.6 18.7368 61.5429C20.5133 62.4856 21.8097 63.8474 22.626 65.6285C23.4422 67.4096 23.7063 69.7928 23.4182 72.7787L22.3019 84.3678C22.1338 86.3583 22.6619 87.6809 23.8864 88.3357C25.1108 89.0164 26.8151 89.3571 29 89.3571V98C22.3739 98 17.7164 96.8999 15.0276 94.7C12.3628 92.5262 11.2825 88.7941 11.7866 83.5035L12.867 72.2677C13.0591 70.2775 12.747 68.7191 11.9307 67.5928C11.1385 66.4667 9.9621 65.6808 8.40163 65.2355C6.84115 64.7644 5.04062 64.5286 3 64.5286V54.4714C5.01661 54.4714 6.80515 54.2487 8.36563 53.8036C9.92609 53.332 11.1145 52.5333 11.9307 51.4072C12.747 50.2809 13.0591 48.7225 12.867 46.7321L11.7866 35.575C11.2585 30.1797 12.3388 26.4083 15.0276 24.2607C17.7164 22.0869 22.3739 21 29 21Z" fill="url(#paint3_linear_86_202)"/>
<defs>
<linearGradient id="paint0_linear_86_202" x1="-87.071" y1="103.928" x2="127.927" y2="34.1661" gradientUnits="userSpaceOnUse">
<stop stop-color="#00C0FD"/>
<stop offset="1" stop-color="#E70FAA"/>
</linearGradient>
<linearGradient id="paint1_linear_86_202" x1="55.5" y1="19" x2="55.5" y2="101" gradientUnits="userSpaceOnUse">
<stop stop-color="#00C0FD"/>
<stop offset="1" stop-color="#E70FAA"/>
</linearGradient>
<linearGradient id="paint2_linear_86_202" x1="55.5" y1="19" x2="55.5" y2="101" gradientUnits="userSpaceOnUse">
<stop stop-color="#00C0FD"/>
<stop offset="1" stop-color="#E70FAA"/>
</linearGradient>
<linearGradient id="paint3_linear_86_202" x1="-1.24438" y1="103.928" x2="213.754" y2="34.1661" gradientUnits="userSpaceOnUse">
<stop stop-color="#00C0FD"/>
<stop offset="1" stop-color="#E70FAA"/>
</linearGradient>
</defs>
</svg>
