<svg width="30" height="30" viewBox="0 0 30 30" fill="none" xmlns="http://www.w3.org/2000/svg">

    <g id="linkChain">
        <svg width="20" height="20" viewBox="0 0 20 20" fill="none" xmlns="http://www.w3.org/2000/svg">
            <path d="M11.2864 8.71333C10.6038 8.03103 9.67822 7.64774 8.71309 7.64774C7.74797 7.64774 6.82235 8.03103 6.13976 8.71333L3.56559 11.2867C2.88299 11.9693 2.49951 12.8951 2.49951 13.8604C2.49951 14.8258 2.88299 15.7516 3.56559 16.4342C4.24819 17.1168 5.174 17.5002 6.13934 17.5002C7.10469 17.5002 8.03049 17.1168 8.71309 16.4342L9.99976 15.1475"
                  stroke="black" stroke-width="1.66667" stroke-linecap="round" stroke-linejoin="round"/>
            <path d="M8.71289 11.2867C9.39548 11.969 10.3211 12.3523 11.2862 12.3523C12.2513 12.3523 13.177 11.969 13.8596 11.2867L16.4337 8.71334C17.1163 8.03074 17.4998 7.10493 17.4998 6.13959C17.4998 5.17424 17.1163 4.24844 16.4337 3.56584C15.7511 2.88324 14.8253 2.49976 13.86 2.49976C12.8946 2.49976 11.9688 2.88324 11.2862 3.56584L9.99956 4.8525"
                  stroke="black" stroke-width="1.66667" stroke-linecap="round" stroke-linejoin="round"/>
        </svg>

    </g>

    <g id="logoBig">
        <path d="M92 21C98.626 21 103.272 22.0869 105.936 24.2607C108.625 26.4345 109.717 30.1797 109.213 35.4964L108.133 46.7321C107.941 48.7225 108.253 50.2809 109.069 51.4072C109.886 52.5333 111.062 53.332 112.598 53.8036C114.159 54.2487 115.959 54.4714 118 54.4714V64.5286C115.983 64.5286 114.195 64.7644 112.634 65.2355C111.074 65.6808 109.886 66.4667 109.069 67.5928C108.253 68.7191 107.941 70.2775 108.133 72.2677L109.213 83.425C109.765 88.7941 108.685 92.5654 105.972 94.7391C103.283 96.9132 98.626 98 92 98V89.3571C94.2089 89.3571 95.9252 89.0164 97.1494 88.3357C98.3741 87.6809 98.8902 86.3583 98.6983 84.3678L97.5817 72.7787C97.2937 69.819 97.5817 67.4486 98.4459 65.668C99.3343 63.8605 100.679 62.4856 102.479 61.5429C104.28 60.5736 106.392 59.8929 108.817 59.4999C106.248 59.0809 104.064 58.4 102.263 57.4571C100.486 56.5142 99.1904 55.1524 98.3741 53.3715C97.5577 51.5643 97.2937 49.181 97.5817 46.2213L98.6983 34.6321C98.8902 32.6416 98.3618 31.319 97.1136 30.6643C95.8892 29.9833 94.1847 29.6429 92 29.6429V21Z"
              fill="black"/>
        <path d="M60.2166 100.924C59.216 100.736 58.1794 100.228 57.5916 99.6656C57.1925 99.217 56.9647 98.6253 56.9533
                98.0061C56.9533 97.3767 57.2532 96.4932 57.7283 95.6125C58.0162 95.1166 58.2418 94.5824 58.4026 94.0201C58.5034
        93.6325 58.7145 93.0031 58.8777 92.6024L59.1656 91.8682L59.24 86.9599C59.2784 84.2452 59.3528 81.7308 59.4152        81.3404C59.5783 80.2155 59.8519 79.1188 60.2142 78.0504L60.4902 77.3416L60.0894 77.0873C59.7271 76.8459 59.4271
        76.512 58.2394 74.9993C56.7781 73.1527 54.8537 72.1357 52.1279 71.7889C51.2401 71.6964 50.3403 71.6271 49.4404
        71.5886C45.4405 71.3882 43.1537 70.4919 41.0926 68.3243C39.5545 66.7063 38.7555 64.8185 38.4315 62.0371C37.9948
        58.2771 37.5078 56.3509 36.6079 54.7867C36.3861 54.4005 36.1306 54.0375 35.8449 53.7029L35.4826 53.3151L34.6835
        53.8647C34.2468 54.1729 33.6325 54.5607 33.3326 54.7354C32.332 55.3235 31.3818 55.9784 30.47 56.6873C28.2337
        58.4261 25.7958 60.6065 24.4593 62.0371C23.8594 62.6792 23.5475 62.9591 23.4083 62.9334C22.4965 62.787 23.1947
        58.5596 24.6824 55.3749C26.5828 51.2682 29.7814 47.4825 33.4814 44.9271C36.5192 42.8262 41.4309 39.9368 43.7033
        38.9198C47.7392 37.1143 52.9629 35.1598 56.5381 34.117C57.2892 33.8885 57.7499 33.6882 58.0619 33.4621C58.7625
        32.9407 59.4488 32.6865 60.2358 32.6736C60.8981 32.6608 60.9605 32.648 61.5987 32.1908C62.3497 31.6695 62.5729
        31.6412 63.3239 31.9237L63.8111 32.1112L64.4109 31.6695L65.0108 31.2405L65.8722 31.2534C66.5345 31.2662 66.8344
        31.2405 67.1224 31.107C67.4847 30.9323 67.4967 30.9067 67.5975 30.2646C67.823 28.8726 67.847 28.1766 67.7102
        27.3342C67.5351 26.2247 67.5111 21.9176 67.6862 21.0726C67.8734 20.1634 67.9981 19.976 68.6364 19.6421C69.5866
        19.1464 70.2993 19 71.9358 19C73.9345 19 74.9471 19.2954 75.6982 20.071C76.3724 20.767 76.4852 22.3979 76.1349
        26.2247C75.9213 28.4308 75.8973 29.0472 75.9597 30.4906C75.9837 31.4126 76.0461 32.2833 76.0725 32.404C76.1229
        32.6325 76.1733 32.6454 76.8979 32.6582C77.6105 32.6711 77.7353 32.7122 78.4096 33.0872C79.0598 33.4493 79.547
        33.891 79.6477 34.2121C79.6597 34.2789 79.7725 34.2789 79.9717 34.2121C80.358 34.0913 80.6963 34.2249 80.9723 34.5871C81.1354 34.8156 81.2338 34.8542 81.6105 34.8542C82.124 34.8542 82.3112 34.9877 82.7359 35.658C82.9346 35.9589 83.2069 36.1952 83.5229 36.3412C84.2236 36.7162 85.1738 37.7589 85.5361 38.5885C86.0976 39.8187 86.2103 41.2492 85.86 42.5334C85.7352 43.0162 85.7352 43.029 85.9968 43.4965C86.5463 44.5007 86.7478 45.7309 86.5223 46.7736L86.3975 47.39L86.7718 47.7907C88.6337 49.7837 88.3579 53.0352 86.0856 55.9373C85.8316 56.2688 85.6172 56.6329 85.4473 57.0212C85.0106 58.2642 84.5091 59.1349 83.8613 59.8566L83.199 60.5783H82.5247C81.8505 60.5783 80.9003 60.3369 80.3244 60.0158C80.0868 59.8822 80.0749 59.8822 80.1252 60.0415C80.2764 60.6297 80.6507 63.0233 80.7755 64.3486C80.9746 66.3827 80.9123 69.3387 80.6507 70.6101C80.4596 71.5517 80.1394 72.4578 79.7005 73.2991C79.451 73.728 79.439 73.8205 79.487 74.3418C79.5614 75.0763 79.4006 76.3091 79.1247 77.1233C78.7863 78.0736 78.6615 78.5153 78.5872 78.9956C78.5248 79.4091 78.5248 79.4091 78.8007 79.4091C79.163 79.4091 79.3622 79.6376 79.3622 80.0923C79.3622 80.2926 79.199 81.3764 78.9999 82.4859C78.4504 85.6038 78.412 85.9505 78.412 88.9732C78.4 92.0915 78.4 92.0634 79.0623 92.5305L80.55 93.5606C81.8298 94.4694 83.2004 95.2235 84.6363 95.8077C86.7238 96.6912 87.0116 96.9172 87.0116 97.6671C87.0116 98.0013 86.9496 98.1219 86.6879 98.389C85.8888 99.2184 84.3124 99.406 81.1378 99.0437C79.4882 98.878 77.8324 98.7937 76.1756 98.7896C71.8014 98.7225 71.1631 98.5609 70.5896 97.3973C70.2657 96.7295 70.3281 95.859 70.7768 94.4283C70.976 93.7996 71.1511 93.1572 71.3023 92.5024C71.6022 90.9512 71.4031 89.1047 70.7024 87.0189L70.1025 85.2391C69.5146 83.4336 69.1907 80.1282 69.5411 79.3808C69.6034 79.2344 69.7162 79.2062 70.0162 79.219L70.3905 79.2601L70.7024 78.5641C70.9399 78.0145 71.2015 77.6549 71.9141 76.8922L72.8259 75.9162L72.7756 75.2869C72.7372 74.6859 72.0005 71.7684 71.8997 71.7812C71.8613 71.7812 71.6622 72.0765 71.4367 72.449C70.8871 73.3325 69.6754 74.6962 68.9867 75.1919C68.6868 75.4051 68.4373 75.6594 68.4373 75.7416C68.4253 76.1036 68.1373 76.8125 67.787 77.3056C67.4487 77.7885 67.4247 77.8681 67.4751 78.2944C67.5614 78.9236 67.3743 80.9423 67.1512 82.0005C66.9489 82.7862 66.6723 83.5478 66.3257 84.2735C65.4643 86.1868 64.814 87.8973 64.6509 88.6883C64.533 89.4499 64.4577 90.2184 64.4253 90.9895C64.3869 91.8991 64.3006 92.7825 64.2382 92.9695C64.1518 93.2243 64.1518 93.4243 64.2261 93.8119C64.2885 94.092 64.3269 94.7214 64.3125 95.2173C64.3006 95.9001 64.3509 96.3419 64.5381 97.1432C64.862 98.5068 64.9244 99.3649 64.7757 99.8731C64.6749 100.194 64.5765 100.315 64.2382 100.49C63.4871 100.903 61.3636 101.132 60.2142 100.919L60.2166 100.924ZM63.2519 99.8272C63.6887 99.6937 64.0654 99.293 64.0654 98.9307C64.0654 98.7691 63.9406 98.3013 63.7894 97.8883C63.4895 97.0994 62.976 95.0118 62.976 94.6646C62.976 94.49 62.988 94.4776 63.2375 94.6235L63.5135 94.7858V94.4105C63.4735 94.0646 63.4019 93.7243 63.2999 93.3935C63.0624 92.6305 63.0384 92.6182 61.5243 92.523L60.4997 92.4689L60.1254 92.8565C59.9196 93.0832 59.7392 93.3352 59.5879 93.6065C59.4248 93.9537 59.3624 94.4776 59.4632 94.5954C59.4872 94.6365 59.7391 94.5954 60.0126 94.529C60.175 94.4769 60.3425 94.4461 60.5117 94.4365C60.5117 94.4489 60.2358 94.6906 59.8878 94.9447C58.3882 96.1494 57.8627 96.8836 57.8627 97.8212C57.8627 98.7972 58.7241 99.5601 60.075 99.7889C60.9988 99.9348 62.7985 99.9759 63.2496 99.83L63.2519 99.8272ZM83.5853 98.2349C83.9596 97.752 83.9093 97.2589 83.4342 96.6966C83.1582 96.4008 82.8462 96.1467 82.4959 95.9467C82.1456 95.746 81.7953 95.5173 81.4449 95.2789C80.8113 94.8392 80.1605 94.4283 79.4942 94.0482C78.9183 93.7147 78.3568 93.3654 77.8073 92.9928L77.5817 92.8051V89.1273C77.5817 85.5036 77.5698 85.4497 77.3946 85.5036C76.5188 85.7579 75.0695 85.8786 73.2339 85.8375L71.2471 85.8118L71.535 86.5618C72.0725 87.9795 72.3485 89.88 72.3485 92.0607C72.3485 92.8771 72.2981 93.1702 72.1109 93.7455C72.0101 94.0256 71.9237 94.3078 71.835 94.5879C71.7966 94.7084 71.9358 94.8009 72.4468 94.9625C72.8211 95.0837 73.3707 95.2043 73.685 95.2426L74.2608 95.3098L74.1985 95.9262C74.1361 96.622 74.2105 97.3562 74.3736 97.5849C74.4744 97.7185 74.8488 97.7726 76.586 97.852C77.8985 97.9192 79.3238 98.065 80.4468 98.2397C81.4209 98.402 82.4719 98.5355 82.7839 98.5355C83.3094 98.5479 83.3597 98.5225 83.5829 98.2397L83.5853 98.2349ZM63.5783 91.9758C63.6287 91.9347 63.703 91.2128 63.7295 90.3581C63.8303 87.9644 63.9166 87.6151 65.042 84.9129C65.9658 82.7068 66.4553 80.647 66.4169 79.1882L66.3929 78.3175L66.0426 78.6797C65.3179 79.4553 65.817 78.2379 66.6809 77.1541C67.3311 76.3245 67.5566 75.87 67.6551 75.1354C67.7054 74.84 67.8062 74.6937 68.2309 74.3469C69.82 73.062 71.0445 71.33 71.7678 69.3439C71.9429 68.861 72.3917 67.2173 72.7684 65.6917C73.469 62.8692 73.8433 61.6518 74.1817 61.1304C74.3065 60.9301 74.3568 60.889 74.3328 61.0226C74.1516 61.7399 74.0098 62.468 73.9081 63.2031C73.8074 63.858 73.6202 65.1421 73.4954 66.0385C73.2579 67.8723 73.0083 69.0486 72.67 69.9577L72.4445 70.5741L73.0443 72.2332C73.6682 73.9309 73.9561 75.1636 74.0065 76.3528L74.0449 77.0206L73.5578 77.1284C72.9149 77.2502 72.3412 77.6341 71.9573 78.1994C71.5326 78.8543 71.2951 79.3911 71.4079 79.5092C71.4582 79.5632 72.0701 79.6839 72.7708 79.7763C73.8577 79.9099 74.2704 79.9099 75.7078 79.8174C76.3316 79.7917 76.9459 79.725 77.5578 79.63C77.6946 79.576 77.8337 79.2832 78.0568 78.5205C78.5703 76.7689 78.6688 76.1525 78.6064 74.9222L78.5559 73.8384L78.8175 73.4763C79.4294 72.6467 79.9045 71.1494 80.1037 69.3952C80.3412 67.2559 79.9045 62.7742 79.0911 58.9217C78.7047 57.0879 78.5415 55.9913 78.5415 55.19V54.4811L77.9297 54.5479C75.7293 54.8021 73.0683 54.7354 71.4438 54.3733C70.556 54.1857 68.3197 53.4769 67.8326 53.2484L67.4463 53.0608L67.3959 53.5283C67.3575 53.7826 67.3215 54.0368 67.2711 54.3039C67.1967 54.5839 67.2207 54.6506 67.6839 55.1335C68.2597 55.7627 68.4349 56.0838 68.4349 56.5101C68.4349 56.7772 68.2981 56.9929 67.5975 57.7686C67.0951 58.3423 66.5377 58.8579 65.9346 59.3069L65.1212 59.8951L64.7709 61.1921C63.5207 65.9409 63.2832 70.2608 64.1086 73.3504L64.3077 74.1261L63.907 74.6603C62.4073 76.6789 61.5195 78.2174 61.3828 79.0752C61.3028 79.4976 61.2108 79.9173 61.1068 80.3337C60.7829 81.6589 60.5309 83.598 60.4205 85.6988C60.3436 87.4576 60.2357 89.2143 60.0966 90.969L60.0342 91.4902L60.6581 91.6908C61.0084 91.8114 61.5339 91.9449 61.8339 91.999C62.3954 92.0915 63.4343 92.0655 63.5951 91.973L63.5783 91.9758ZM75.7126 84.6176C76.6868 84.5508 77.5746 84.389 77.7497 84.2298C77.8241 84.1759 77.9129 83.8959 77.9369 83.6134L77.9993 83.1048L77.2243 83.2924C76.6124 83.4259 76.0005 83.5055 75.3862 83.5595C73.9105 83.6262 72.4253 83.5851 70.9616 83.4259C70.4744 83.3463 70.4744 83.3463 70.6232 84.0269C70.748 84.5354 70.7744 84.5611 72.0485 84.6561C72.8979 84.7357 74.0857 84.7229 75.7101 84.615L75.7126 84.6176ZM74.8991 82.2907C76.1733 82.17 77.7617 81.8772 78.0737 81.7025C78.1745 81.6486 78.2608 81.4483 78.2992 81.2197L78.412 80.5109L78.4744 80.177L78.1624 80.2438C76.7755 80.5519 75.7245 80.6444 73.625 80.6444C71.5758 80.6444 71.3383 80.6316 70.8008 80.4313C70.5942 80.3381 70.3743 80.2833 70.1505 80.2694C70.0642 80.3234 70.0498 81.0862 70.1265 81.6204C70.1769 81.9414 70.2273 81.9953 70.5272 82.0878C71.4774 82.3678 73.0779 82.4345 74.9015 82.2753L74.8991 82.2907ZM51.7056 70.2248C54.9041 69.236 59.0912 66.3313 62.5153 62.6946C63.6287 61.5029 63.7654 61.3436 63.9142 60.8094L64.1134 60.1263C64.1374 60.0723 63.9382 59.9798 63.6767 59.9131C62.9904 59.7384 62.4649 59.3121 62.4649 58.9243C62.4649 58.6957 62.3401 58.4697 61.9778 58.0536C61.3899 57.3448 61.2412 57.0366 61.1788 56.356L61.1284 55.8064L60.4278 55.2722C60.027 54.964 58.6281 54.1344 57.1404 53.3331C56.0077 52.7416 54.8989 52.0989 53.8171 51.4068C52.567 50.5105 51.7295 49.4395 51.2544 48.1708C51.1681 47.9166 51.0553 47.7034 51.0169 47.7034C50.9161 47.7034 48.1039 50.6055 46.9042 51.9693C43.9432 55.3133 41.906 58.2155 40.6175 60.9044C40.2935 61.5722 39.9432 62.3632 39.8424 62.656L39.6553 63.1902L39.8808 64.0866C40.0176 64.5694 40.3056 65.3579 40.5311 65.8253C41.3182 67.4844 42.2563 68.4861 43.8064 69.3028C45.4693 70.1863 46.9426 70.4945 49.4045 70.4534C50.729 70.4406 51.1177 70.3995 51.7032 70.212L51.7056 70.2248ZM26.4604 58.4928C28.56 56.4998 31.4586 54.3193 35.0098 52.0592C37.335 50.5747 46.3211 45.7592 50.4578 43.7919C51.2089 43.4297 51.8831 43.0958 51.9575 43.0573C52.0319 43.0034 52.2455 42.4281 52.4446 41.786C53.3204 38.817 53.7572 38.2289 55.3432 37.8411C55.5424 37.7872 55.5927 37.7204 55.5927 37.5072C55.5927 37.1194 55.8423 36.223 56.0559 35.8224C56.219 35.5142 56.219 35.5014 56.0799 35.5425C55.9935 35.5682 55.468 35.7299 54.9185 35.9046C47.2953 38.2597 40.6343 41.3879 34.8851 45.2943C28.7496 49.4678 25.2127 54.4709 24.1881 60.4627L24.1137 60.9044L24.8648 60.116C25.2655 59.6742 25.9901 58.9525 26.4652 58.5108L26.4604 58.4928ZM83.0118 59.6306C83.6237 59.2967 84.5739 57.7583 84.9242 56.5409C85.025 56.112 85.2242 55.7113 85.5121 55.3774C86.4359 54.2808 87.1991 52.2878 87.2107 50.924C87.2107 48.7975 86.0856 47.9807 84.4491 48.8899C84.2356 48.9978 84.0628 49.0774 84.0364 49.0517C83.95 48.9593 84.4107 48.4764 84.9746 48.1015C85.7113 47.5801 85.8504 47.2719 85.8504 46.1624C85.8613 45.2656 85.6123 44.3872 85.1378 43.648C84.9122 43.2859 84.8259 43.0471 84.8618 42.8981L85.0874 42.0017C85.3993 40.81 85.2866 39.4463 84.7994 38.5782C84.0748 37.2684 83.187 36.6263 81.9488 36.5184L81.2242 36.4645L81.6489 36.973C82.9111 38.4318 83.5229 40.263 83.2734 41.8297C83.1486 42.6335 83.0358 42.7928 82.3112 43.101L81.8865 43.2885L81.9369 43.9049C82.0233 44.909 81.8625 45.6436 81.2626 46.9945C80.9627 47.6777 80.7371 48.2915 80.7635 48.3583C80.8379 48.5868 81.6633 49.0132 82.3136 49.1878L82.9518 49.3497L82.5511 49.496C82.0256 49.6707 81.9129 49.925 81.9129 50.847C81.9129 51.6894 82.0256 52.0386 82.5991 52.9607C82.8606 53.3614 83.0358 53.7774 83.0622 54.0162C83.1126 54.3912 83.1006 54.4169 82.8127 54.5248C82.4863 54.6228 82.1506 54.6814 81.8121 54.6994C80.6363 54.7791 80.55 54.8202 80.0244 55.3544C79.5493 55.8372 79.5374 55.8629 79.5374 56.3971C79.5374 57.1316 79.7989 58.6186 79.9621 58.819C80.1756 59.0604 81.361 59.6897 81.8241 59.7821C82.2235 59.8894 82.6457 59.8374 83.0118 59.6357V59.6306ZM65.7019 58.6289C66.4649 57.9868 67.0648 57.3448 67.4007 56.7951C67.6142 56.4613 67.6263 56.3945 67.5255 56.112C67.3503 55.6831 66.201 54.5736 65.5627 54.2397C65.1374 54.0358 64.6875 53.8965 64.2261 53.8262L63.4391 53.7183L62.952 53.0634C61.9394 51.7253 61.378 50.6826 60.5765 48.6614C59.8759 46.9483 59.264 45.9466 58.2898 44.9553C57.8891 44.5546 57.6035 44.2207 57.6275 44.2207C57.6779 44.2207 58.153 44.475 58.7025 44.7832C59.6143 45.3046 59.7271 45.3457 60.1398 45.2789C61.6275 45.0914 62.94 43.2602 63.4151 40.6919C63.5519 39.9702 63.8278 39.2331 64.1158 38.7913C64.1278 38.7785 64.7037 39.1792 65.3779 39.7005C67.0911 40.9975 67.4655 41.1979 68.4397 41.239C69.0779 41.2647 69.4403 41.2133 70.5896 40.9179C73.0395 40.2758 75.6886 40.0216 77.301 40.2501C78.2129 40.3837 79.5253 40.8126 80.4995 41.3057C81.4618 41.7886 81.6489 41.8143 81.9609 41.5189C82.2224 41.2775 82.2224 41.239 82.2224 40.3426C82.2104 39.0174 81.7593 37.5868 81.0731 36.7316C80.7227 36.2898 79.7365 35.5682 78.7599 35.0185C78.4127 34.8214 78.0672 34.6211 77.7234 34.4176C77.2602 34.1222 76.7371 34.1633 75.3118 34.5639C73.661 35.0185 73.2243 35.0185 71.3383 34.4971C69.7378 34.0683 69.6394 34.0554 68.063 34.3225C67.2255 34.456 65.126 34.3765 64.4253 34.1761C64.075 34.0683 63.7247 33.9629 63.3887 33.8294C62.7768 33.5752 61.7139 33.5341 60.7517 33.7215C58.8393 34.0837 57.39 35.1932 56.8645 36.7033C56.5886 37.4661 56.627 37.8283 56.9893 38.0671C57.5651 38.4549 58.3258 39.5131 58.3258 39.9265C58.3258 39.9522 58.1386 39.7802 57.9251 39.5388C57.3876 38.9378 56.9005 38.6681 56.3246 38.6681C55.952 38.6792 55.5897 38.8014 55.2785 39.021C54.9673 39.2406 54.7196 39.5489 54.5634 39.9111C54.3952 40.3837 54.2534 40.8665 54.1386 41.3571C53.7883 42.7208 53.4764 43.4451 52.8141 44.4083C52.2263 45.2789 52.1399 45.6667 52.351 46.6427C52.8765 49.1031 53.7883 50.0945 57.5987 52.4085C59.5975 53.6259 60.6221 54.309 61.3732 54.91C61.949 55.3646 61.961 55.3929 61.9107 55.7396C61.7978 56.5435 62.2729 57.4115 63.2112 58.1204C63.4487 58.295 63.5975 58.4826 63.5975 58.6161C63.5975 58.8575 64.2357 59.1914 64.6964 59.1914C64.958 59.1914 65.1596 59.0707 65.6971 58.6289H65.7019ZM81.1114 54.119C82.5607 54.1729 82.6351 54.0522 81.8625 53.0891C81.0491 52.0849 80.8259 51.2708 81.1258 50.3744L81.2506 50.0277L80.7371 49.7606C80.5619 49.6681 80.3868 49.5731 80.2116 49.5063C80.1252 49.8685 80.0365 50.2152 79.9621 50.5773C79.7749 51.394 79.5493 53.5077 79.5374 54.4041C79.5374 54.4837 79.6621 54.458 79.8757 54.3116C80.1756 54.1241 80.3268 54.0984 81.1138 54.1241L81.1114 54.119ZM76.2501 54.0394C77.1258 53.9854 78.0257 53.9186 78.2632 53.8776L78.6999 53.8108L78.7503 52.2724C78.8247 50.0791 79.1247 48.782 80.0125 46.7069C80.6363 45.2352 80.9123 43.9511 80.7755 42.9879C80.7251 42.5745 80.7011 42.5462 80.1756 42.3048C79.2134 41.8958 78.2113 41.6038 77.1882 41.4342C76.2021 41.2877 73.301 41.3674 72.2141 41.5959C71.763 41.6756 70.9399 41.863 70.3905 42.0095C69.0276 42.3433 68.3029 42.3048 67.2663 41.8219C66.2417 41.3391 65.5915 40.9 64.9796 40.2836C64.4925 39.8007 64.4421 39.775 64.3173 39.9368C64.2165 40.0575 64.1662 40.4196 64.1302 41.1953C64.0918 42.387 63.9166 43.0136 63.4295 43.856C63.3213 44.0294 63.2289 44.2134 63.1536 44.4057C63.1536 44.4467 63.5279 44.9142 63.991 45.4227C65.5915 47.2026 66.3785 47.6571 67.6407 47.5621C68.0534 47.521 68.3413 47.5364 68.3413 47.5878C68.3413 47.6957 67.5278 48.3762 67.1919 48.5638C67.0288 48.6562 66.9928 48.7512 67.0168 48.9515L67.2159 50.3564C67.3287 51.1603 67.4151 51.5327 67.5278 51.6406C67.8278 51.9077 69.3779 52.7655 70.3521 53.1919C71.6262 53.7415 72.3268 53.9418 73.301 54.0343C74.5008 54.1421 74.5248 54.1421 76.2501 54.0343V54.0394ZM65.9154 52.5677C65.9394 52.5266 65.853 51.751 65.6898 50.8547C65.4907 49.6373 65.3779 49.1956 65.2531 49.0748C65.1667 48.9952 64.7037 48.646 64.2405 48.2864C63.6321 47.8181 63.0556 47.3039 62.5153 46.7479L61.6539 45.8388L61.1908 46.0931L60.7037 46.373C60.7447 46.5819 60.8117 46.784 60.9029 46.974C61.0396 47.295 61.3156 48.0835 61.5147 48.7255C62.0402 50.3975 62.4529 51.2014 63.4895 52.6576L63.8758 53.2073L64.6125 53.3279C65.0252 53.3947 65.4379 53.4898 65.5507 53.5283C65.7259 53.6079 65.7499 53.5694 65.8002 53.1405C65.8242 52.953 65.8626 52.7526 65.913 52.5652L65.9154 52.5677ZM81.7497 35.9277C82.388 35.8609 82.5007 35.7659 82.2248 35.4603C82.0496 35.2728 81.6489 35.26 81.325 35.4192C81.1114 35.5271 81.0635 35.4988 80.7251 35.111C80.3748 34.6975 80.3508 34.6821 79.9117 34.736C79.5109 34.7899 79.4486 34.7771 79.3982 34.6025C79.2421 34.3156 79.0482 34.0543 78.8223 33.8268C78.5385 33.4816 78.1836 33.2117 77.7857 33.0383C77.0107 32.7173 76.574 32.7584 75.8349 33.2002C73.697 34.4432 73.7857 34.4304 71.7222 33.8679C69.7978 33.3465 68.3605 32.8123 67.8974 32.4759C67.5111 32.1959 66.6857 31.8877 65.997 31.7927C65.4835 31.7131 65.1596 31.8338 64.6724 32.2602L64.4109 32.4887L64.6484 32.9305C64.9724 33.5469 64.9364 33.5854 64.4493 33.1308C63.9238 32.6634 63.2999 32.3424 62.8992 32.327C62.6113 32.327 61.7619 32.7276 61.6611 32.9023C61.6227 32.9562 61.8867 33.0229 62.237 33.0486C62.5993 33.0897 63.0984 33.2233 63.4367 33.3697C64.3125 33.7703 64.7613 33.9039 65.5603 33.9861C66.4361 34.0785 68.0221 33.9732 68.2093 33.8114C68.3101 33.719 68.5836 33.7036 69.1595 33.7575C69.9225 33.8114 70.2345 33.891 72.0461 34.4124C73.0971 34.7206 73.8337 34.6923 75.0839 34.3328C75.6598 34.1581 76.3844 33.9861 76.6843 33.945C77.1978 33.891 77.2962 33.9193 78.0977 34.3071C79.3718 34.9235 80.0484 35.3113 80.4228 35.6709C80.7971 36.0176 80.8475 36.0176 81.7473 35.938L81.7497 35.9277ZM74.6256 33.588L75.3886 33.1591L75.3646 32.3295C75.3526 31.7542 75.3262 31.1918 75.3022 30.6319L75.2398 29.7766L74.4768 30.4059C74.0257 30.7808 73.589 31.0607 73.4018 31.1018C72.8524 31.2097 70.1409 31.1018 69.889 30.9555C69.5533 30.6901 69.2394 30.3945 68.9508 30.072L68.2501 29.3092L68.2381 29.7638C68.2381 30.0052 68.2141 30.4187 68.1638 30.673C68.1014 31.1558 68.1014 31.1686 68.5884 31.8236C68.85 32.1857 69.0635 32.5067 69.0635 32.5452C69.0635 32.7995 72.6748 34.004 73.4882 34.0169C73.7498 34.0169 74.0761 33.8962 74.6256 33.588ZM73.1763 30.5497C74.0761 30.3622 74.5128 29.6662 74.8511 27.9017C75.2014 26.0012 75.3766 23.0194 75.2135 21.7481C75.0623 20.5975 73.8625 20.089 71.5758 20.1686C70.1505 20.2225 69.5626 20.3689 69.0756 20.8107C68.7756 21.0778 68.7756 21.106 68.6388 22.3747C68.3893 24.8095 68.7636 28.2742 69.4139 29.5711C69.7258 30.2004 70.0018 30.4264 70.5752 30.5343C71.2255 30.655 72.6124 30.655 73.1739 30.5471L73.1763 30.5497Z"
              fill="black"/>
        <path d="M29 21V29.6429C26.8151 29.6429 25.1108 29.9833 23.8864 30.6643C22.6619 31.319 22.1338 32.6416 22.3019 34.6321L23.4182 46.2213C23.7063 49.1546 23.4062 51.525 22.5179 53.332C21.6536 55.139 20.3212 56.5275 18.5207 57.4964C16.7442 58.4395 14.6435 59.1071 12.2188 59.4999C14.7875 59.9189 16.9602 60.6 18.7368 61.5429C20.5133 62.4856 21.8097 63.8474 22.626 65.6285C23.4422 67.4096 23.7063 69.7928 23.4182 72.7787L22.3019 84.3678C22.1338 86.3583 22.6619 87.6809 23.8864 88.3357C25.1108 89.0164 26.8151 89.3571 29 89.3571V98C22.3739 98 17.7164 96.8999 15.0276 94.7C12.3628 92.5262 11.2825 88.7941 11.7866 83.5035L12.867 72.2677C13.0591 70.2775 12.747 68.7191 11.9307 67.5928C11.1385 66.4667 9.9621 65.6808 8.40163 65.2355C6.84115 64.7644 5.04062 64.5286 3 64.5286V54.4714C5.01661 54.4714 6.80515 54.2487 8.36563 53.8036C9.92609 53.332 11.1145 52.5333 11.9307 51.4072C12.747 50.2809 13.0591 48.7225 12.867 46.7321L11.7866 35.575C11.2585 30.1797 12.3388 26.4083 15.0276 24.2607C17.7164 22.0869 22.3739 21 29 21Z"
              fill="black"/>
        <defs>
            <linearGradient id="paint0_linear_86_202" x1="-87.071" y1="103.928" x2="127.927" y2="34.1661"
                            gradientUnits="userSpaceOnUse">
                <stop stop-color=" #13B0F5"/>
                <stop offset="1" stop-color="#E70FAA"/>
            </linearGradient>
            <linearGradient id="paint1_linear_86_202" x1="-1.24438" y1="103.928" x2="213.754" y2="34.1661"
                            gradientUnits="userSpaceOnUse">
                <stop stop-color=" #13B0F5"/>
                <stop offset="1" stop-color="#E70FAA"/>
            </linearGradient>
        </defs>
    </g>
    <!-- linear-gradient(to top, #13B0F5, #E70FAA); -->
    // icon for navigation

    <g id="gitNav">
        <path fill-rule="evenodd" clip-rule="evenodd"
              d="M15 0C6.7125 0 0 6.7125 0 15C0 21.6375 4.29375 27.2437 10.2563 29.2313C11.0063 29.3625 11.2875 28.9125
              11.2875 28.5188C11.2875 28.1625 11.2688 26.9813 11.2688 25.725C7.5 26.4188 6.525 24.8062 6.225 23.9625C6.05625
              23.5312 5.325 22.2 4.6875 21.8438C4.1625 21.5625 3.4125 20.8687 4.66875 20.85C5.85 20.8313 6.69375 21.9375 6.975
              22.3875C8.325 24.6562 10.4812 24.0187 11.3438 23.625C11.475 22.65 11.8688 21.9937 12.3 21.6187C8.9625 21.2437 5.475
              19.95 5.475 14.2125C5.475 12.5813 6.05625 11.2313 7.0125 10.1813C6.8625 9.80625 6.3375 8.26875 7.1625 6.20625C7.1625
              6.20625 8.41875 5.8125 11.2875 7.74375C12.4875 7.40625 13.7625 7.2375 15.0375 7.2375C16.3125 7.2375 17.5875 7.40625
              18.7875 7.74375C21.6562 5.79375 22.9125 6.20625 22.9125 6.20625C23.7375 8.26875 23.2125 9.80625 23.0625 10.1813C24.0188
              11.2313 24.6 12.5625 24.6 14.2125C24.6 19.9688 21.0938 21.2437 17.7563 21.6187C18.3 22.0875 18.7688 22.9875 18.7688
              24.3937C18.7688 26.4 18.75 28.0125 18.75 28.5188C18.75 28.9125 19.0312 29.3813 19.7812 29.2313C22.759 28.2259 25.3465
              26.3121 27.1796 23.7592C29.0127 21.2063 29.9991 18.1429 30 15C30 6.7125 23.2875 0 15 0Z"
              fill="#666666"/>
    </g>

    <g id="twitterNav">
        <svg width="30" height="30" viewBox="0 0 30 30" fill="none" xmlns="http://www.w3.org/2000/svg">
            <path d="M15.875 0.875C7.59152 0.875 0.875 7.59152 0.875 15.875C0.875 24.1585 7.59152 30.875 15.875 30.875C24.1585 30.875 30.875 24.1585 30.875 15.875C30.875 7.59152 24.1585 0.875 15.875 0.875ZM23.0837 12.1819C23.0937 12.3393 23.0937 12.5033 23.0937 12.6641C23.0937 17.5792 19.3504 23.2411 12.51 23.2411C10.4007 23.2411 8.44531 22.6283 6.79799 21.5737C7.09933 21.6071 7.38728 21.6205 7.69531 21.6205C9.43638 21.6205 11.0368 21.0312 12.3125 20.0335C10.6786 20 9.3058 18.9286 8.83705 17.4554C9.4096 17.5391 9.92522 17.5391 10.5145 17.3884C9.67319 17.2175 8.91699 16.7605 8.37438 16.0953C7.83178 15.43 7.53623 14.5973 7.53795 13.7388V13.692C8.03013 13.9699 8.60938 14.1406 9.2154 14.1641C8.70595 13.8245 8.28814 13.3645 7.99903 12.8249C7.70993 12.2852 7.55845 11.6825 7.55804 11.0703C7.55804 10.3772 7.73884 9.74442 8.06362 9.19531C8.99744 10.3449 10.1627 11.2851 11.4837 11.9548C12.8047 12.6245 14.2518 13.0088 15.731 13.0826C15.2054 10.5547 17.0938 8.50893 19.3638 8.50893C20.4353 8.50893 21.3996 8.95759 22.0792 9.6808C22.9196 9.52344 23.7232 9.2087 24.4397 8.78683C24.1618 9.64732 23.5792 10.3739 22.8058 10.8326C23.5558 10.7522 24.279 10.5446 24.9487 10.2533C24.4431 10.9967 23.8103 11.6562 23.0837 12.1819Z" fill="#666666"/>
        </svg>
    </g>

    <g id="linkedinNav">
        <path d="M15.0001 0.600098C7.0471 0.600098 0.600098 7.0471 0.600098 15.0001C0.600098 22.9531 7.0471 29.4001 15.0001 29.4001C22.9531 29.4001 29.4001 22.9531 29.4001 15.0001C29.4001 7.0471 22.9531 0.600098 15.0001 0.600098ZM11.4751 20.9686H8.5591V11.5846H11.4751V20.9686ZM9.9991 10.4326C9.0781 10.4326 8.4826 9.7801 8.4826 8.9731C8.4826 8.1496 9.0961 7.5166 10.0366 7.5166C10.9771 7.5166 11.5531 8.1496 11.5711 8.9731C11.5711 9.7801 10.9771 10.4326 9.9991 10.4326ZM22.1251 20.9686H19.2091V15.7681C19.2091 14.5576 18.7861 13.7356 17.7316 13.7356C16.9261 13.7356 16.4476 14.2921 16.2361 14.8276C16.1581 15.0181 16.1386 15.2881 16.1386 15.5566V20.9671H13.2211V14.5771C13.2211 13.4056 13.1836 12.4261 13.1446 11.5831H15.6781L15.8116 12.8866H15.8701C16.2541 12.2746 17.1946 11.3716 18.7681 11.3716C20.6866 11.3716 22.1251 12.6571 22.1251 15.4201V20.9686Z"
              fill="#666666"/>
    </g>

    // icon for block icon

    <g id="bootStrapStack">
        <path d="M0 75.7821C0 81.9781 5.08028 87 11.3468 87H76.6528C82.9204 87 88 81.9774 88 75.7821V11.2182C88 5.02187 82.9197 0 76.6532 0H11.3472C5.07959 0 0 5.02255 0 11.2179V75.7818V75.7821Z"
              fill="#563D7C"/>
        <path d="M36.4919 38.4832V26.1629H47.4613C48.5063 26.1629 49.5135 26.2489 50.4836 26.4212C51.4536 26.5931 52.312 26.9003 53.0583 27.3431C53.8042 27.786 54.4013 28.4007 54.8492 29.1875C55.2968 29.9746 55.5209 30.9829 55.5209 32.2121C55.5209 34.4255 54.8492 36.0241 53.5058 37.0076C52.1628 37.9915 50.4464 38.4832 48.3568 38.4832H36.4919ZM24.7759 17.1621V69.8379H50.5956C52.9837 69.8379 55.3095 69.5429 57.5731 68.9526C59.8367 68.3623 61.8514 67.4525 63.6176 66.223C65.3834 64.9934 66.789 63.407 67.8337 61.4645C68.8787 59.5216 69.4008 57.2222 69.4008 54.5663C69.4008 51.2709 68.5923 48.4553 66.9757 46.1192C65.3587 43.7828 62.9084 42.1474 59.6249 41.2129C62.0129 40.0819 63.8166 38.6307 65.0355 36.8601C66.2541 35.0895 66.8636 32.8765 66.8636 30.2203C66.8636 27.7612 66.4532 25.6956 65.6323 24.0232C64.8114 22.3512 63.6547 21.0108 62.1621 20.0025C60.6699 18.9942 58.879 18.2686 56.7893 17.8262C54.7 17.3833 52.3866 17.1621 49.8493 17.1621H24.7759ZM36.4919 60.8371V46.3771H49.2523C51.7895 46.3771 53.8293 46.9548 55.3717 48.111C56.9138 49.2668 57.6851 51.1971 57.6851 53.9023C57.6851 55.2797 57.4486 56.4107 56.976 57.296C56.5033 58.1813 55.8691 58.8823 55.073 59.3986C54.2772 59.9151 53.3566 60.2839 52.312 60.5054C51.267 60.7263 50.1728 60.8371 49.0285 60.8371H36.4919Z"
              fill="white"/>
        <defs>
            <clipPath id="clip0_2_5691">
                <rect width="88" height="87" fill="white"/>
            </clipPath>
        </defs>
    </g>

    <g id="cssStack">
        <path d="M22.1325 101.154L13.71 7.4375H106.29L97.8562 101.139L59.9437 111.562L22.1325 101.154Z" fill="#1572B6"/>
        <path d="M60 103.597L90.6375 95.174L97.845 15.1019H60V103.597Z" fill="#33A9DC"/>
        <path d="M60 49.054H75.3375L76.395 37.2842H60V25.7896H89.0625L88.785 28.8724L85.9387 60.5487H60V49.054Z"
              fill="white"/>
        <path d="M60.0711 78.9045L60.0186 78.9193L47.1112 75.4609L46.2862 66.2942H34.6499L36.2737 84.3413L60.0149 90.8788L60.0711 90.864V78.9045Z"
              fill="#EBEBEB"/>
        <path d="M74.3513 60.0615L72.9563 75.4534L60.03 78.9119V90.8714L83.79 84.3412L83.9663 82.4001L85.98 60.0615H74.3513Z"
              fill="white"/>
        <path d="M60.0411 25.7896V37.2842H32.0436L31.8111 34.6997L31.2824 28.8724L31.0049 25.7896H60.0411ZM59.9999 49.054V60.5487H47.2536L47.0211 57.9642L46.4961 52.1369L46.2186 49.054H59.9999Z"
              fill="#EBEBEB"/>
    </g>

    <g id="gitStack">
        <path d="M103.02 47.8219L57.1758 1.98038C54.5372 -0.6598 50.2552 -0.6598 47.6134 1.98038L38.0937 11.5001L50.1699 23.5763C52.9762 22.6281 56.1943 23.2642 58.4313 25.5012C60.6789 27.7525 61.3106 30.9981 60.3393 33.8134L71.9775 45.452C74.7932 44.482 78.0421 45.1095 80.291 47.3621C83.434 50.5039 83.434 55.596 80.291 58.7399C77.1471 61.8841 72.055 61.8841 68.9095 58.7399C66.5454 56.3733 65.9613 52.9013 67.1582 49.9888L56.3046 39.1352L56.3034 67.6973C57.0902 68.0863 57.8088 68.6002 58.4313 69.2189C61.5743 72.3607 61.5743 77.4532 58.4313 80.5995C55.2874 83.7422 50.1929 83.7422 47.0535 80.5995C43.9105 77.4532 43.9105 72.3611 47.0535 69.2193C47.8067 68.4658 48.7019 67.869 49.6871 67.4635V38.6352C48.7004 38.2324 47.8048 37.6353 47.0535 36.8793C44.6722 34.5013 44.0996 31.0071 45.3198 28.0831L33.4154 16.1775L1.98105 47.6099C-0.660352 50.2525 -0.660352 54.5349 1.98105 57.1755L47.8259 103.018C50.4652 105.658 54.7464 105.658 57.3891 103.018L103.019 57.3884C105.66 54.747 105.66 50.4621 103.019 47.8219"
              fill="#DE4C36"/>
        <defs>
            <clipPath id="clip0_2_5685">
                <rect width="105" height="105" fill="white"/>
            </clipPath>
        </defs>
    </g>

    <g id="gitIconStack">
        <path fill-rule="evenodd" clip-rule="evenodd"
              d="M44 0C19.69 0 0 19.69 0 44C0 63.47 12.595 79.915 30.085 85.745C32.285 86.13 33.11 84.81 33.11 83.655C33.11 82.61 33.055 79.145 33.055 75.46C22 77.495 19.14 72.765 18.26 70.29C17.765 69.025 15.62 65.12 13.75 64.075C12.21 63.25 10.01 61.215 13.695 61.16C17.16 61.105 19.635 64.35 20.46 65.67C24.42 72.325 30.745 70.455 33.275 69.3C33.66 66.44 34.815 64.515 36.08 63.415C26.29 62.315 16.06 58.52 16.06 41.69C16.06 36.905 17.765 32.945 20.57 29.865C20.13 28.765 18.59 24.255 21.01 18.205C21.01 18.205 24.695 17.05 33.11 22.715C36.63 21.725 40.37 21.23 44.11 21.23C47.85 21.23 51.59 21.725 55.11 22.715C63.525 16.995 67.21 18.205 67.21 18.205C69.63 24.255 68.09 28.765 67.65 29.865C70.455 32.945 72.16 36.85 72.16 41.69C72.16 58.575 61.875 62.315 52.085 63.415C53.68 64.79 55.055 67.43 55.055 71.555C55.055 77.44 55 82.17 55 83.655C55 84.81 55.825 86.185 58.025 85.745C66.7597 82.796 74.3497 77.1822 79.7268 69.6937C85.1039 62.2052 87.9974 53.219 88 44C88 19.69 68.31 0 44 0Z"
              fill="black"/>
    </g>

    <g id="greensockStack">
        <path d="M67.365 119.745C65.8012 119.471 64.1812 118.729 63.2625 117.908C62.6388 117.253 62.2829 116.389 62.265 115.485C62.265 114.566 62.7337 113.276 63.4762 111.99C63.9262 111.266 64.2787 110.486 64.53 109.665C64.6875 109.099 65.0175 108.18 65.2725 107.595L65.7225 106.523L65.8387 99.3563C65.8987 95.3925 66.015 91.7213 66.1125 91.1513C66.3675 89.5088 66.795 87.9075 67.3612 86.3475L67.7925 85.3125L67.1662 84.9413C66.6 84.5888 66.1312 84.1013 64.275 81.8925C61.9912 79.1963 58.9837 77.7113 54.7237 77.205C53.3362 77.07 51.93 76.9688 50.5237 76.9125C44.2725 76.62 40.6987 75.3113 37.4775 72.1463C35.0737 69.7838 33.825 67.0275 33.3187 62.9663C32.6362 57.4763 31.875 54.6638 30.4687 52.38C30.1221 51.816 29.7228 51.2861 29.2762 50.7975L28.71 50.2313L27.4612 51.0338C26.7787 51.4838 25.8187 52.05 25.35 52.305C23.7862 53.1638 22.3012 54.12 20.8762 55.155C17.3812 57.6938 13.5712 60.8775 11.4825 62.9663C10.545 63.9038 10.0575 64.3125 9.83998 64.275C8.41498 64.0613 9.50623 57.8888 11.8312 53.2388C14.8012 47.2425 19.8 41.715 25.5825 37.9838C30.33 34.9163 38.0062 30.6975 41.5575 29.2125C47.865 26.5763 56.0287 23.7225 61.6162 22.2C62.79 21.8663 63.51 21.5738 63.9975 21.2438C65.0925 20.4825 66.165 20.1113 67.395 20.0925C68.43 20.0738 68.5275 20.055 69.525 19.3875C70.6987 18.6263 71.0475 18.585 72.2212 18.9975L72.9825 19.2713L73.92 18.6263L74.8575 18L76.2037 18.0188C77.2387 18.0375 77.7075 18 78.1575 17.805C78.7237 17.55 78.7425 17.5125 78.9 16.575C79.2525 14.5425 79.29 13.5263 79.0762 12.2963C78.8025 10.6763 78.765 4.3875 79.0387 3.15375C79.3312 1.82625 79.5262 1.5525 80.5237 1.065C82.0087 0.341252 83.1225 0.127502 85.68 0.127502C88.8037 0.127502 90.3862 0.558753 91.56 1.69125C92.6137 2.7075 92.79 5.08875 92.2425 10.6763C91.9087 13.8975 91.8712 14.7975 91.9687 16.905C92.0062 18.2513 92.1037 19.5225 92.145 19.6988C92.2237 20.0325 92.3025 20.0513 93.435 20.07C94.5487 20.0888 94.7437 20.1488 95.7975 20.6963C96.8137 21.225 97.575 21.87 97.7325 22.3388C97.7512 22.4363 97.9275 22.4363 98.2387 22.3388C98.8425 22.1625 99.3712 22.3575 99.8025 22.8863C100.057 23.22 100.211 23.2763 100.8 23.2763C101.602 23.2763 101.895 23.4713 102.559 24.45C102.869 24.8893 103.295 25.2344 103.789 25.4475C104.884 25.995 106.369 27.5175 106.935 28.7288C107.812 30.525 107.989 32.6138 107.441 34.4888C107.246 35.1938 107.246 35.2125 107.655 35.895C108.514 37.3613 108.829 39.1575 108.476 40.68L108.281 41.58L108.866 42.165C111.776 45.075 111.345 49.8225 107.794 54.06C107.397 54.544 107.062 55.0756 106.796 55.6425C106.114 57.4575 105.33 58.7288 104.317 59.7825L103.282 60.8363H102.229C101.175 60.8363 99.69 60.4838 98.79 60.015C98.4187 59.82 98.4 59.82 98.4787 60.0525C98.715 60.9113 99.3 64.4063 99.495 66.3413C99.8062 69.3113 99.7087 73.6275 99.3 75.4838C99.0013 76.8586 98.5008 78.1816 97.815 79.41C97.425 80.0363 97.4062 80.1713 97.4812 80.9325C97.5975 82.005 97.3462 83.805 96.915 84.9938C96.3862 86.3813 96.1912 87.0263 96.075 87.7275C95.9775 88.3313 95.9775 88.3313 96.4087 88.3313C96.975 88.3313 97.2862 88.665 97.2862 89.3288C97.2862 89.6213 97.0312 91.2038 96.72 92.8238C95.8612 97.3763 95.8012 97.8825 95.8012 102.296C95.7825 106.849 95.7825 106.808 96.8175 107.49L99.1425 108.994C101.143 110.321 103.285 111.422 105.529 112.275C108.791 113.565 109.241 113.895 109.241 114.99C109.241 115.478 109.144 115.654 108.735 116.044C107.486 117.255 105.022 117.529 100.061 117C97.4832 116.758 94.8955 116.635 92.3062 116.629C85.47 116.531 84.4725 116.295 83.5762 114.596C83.07 113.621 83.1675 112.35 83.8687 110.261C84.18 109.343 84.4537 108.405 84.69 107.449C85.1587 105.184 84.8475 102.488 83.7525 99.4425L82.815 96.8438C81.8962 94.2075 81.39 89.3813 81.9375 88.29C82.035 88.0763 82.2112 88.035 82.68 88.0538L83.265 88.1138L83.7525 87.0975C84.1237 86.295 84.5325 85.77 85.6462 84.6563L87.0712 83.2313L86.9925 82.3125C86.9325 81.435 85.7812 77.175 85.6237 77.1938C85.5637 77.1938 85.2525 77.625 84.9 78.1688C84.0412 79.4588 82.1475 81.45 81.0712 82.1738C80.6025 82.485 80.2125 82.8563 80.2125 82.9763C80.1937 83.505 79.7437 84.54 79.1962 85.26C78.6675 85.965 78.63 86.0813 78.7087 86.7038C78.8437 87.6225 78.5512 90.57 78.2025 92.115C77.8864 93.2622 77.4541 94.3742 76.9125 95.4338C75.5662 98.2275 74.55 100.725 74.295 101.88C74.1108 102.992 73.9931 104.114 73.9425 105.24C73.8825 106.568 73.7475 107.858 73.65 108.131C73.515 108.503 73.515 108.795 73.6312 109.361C73.7287 109.77 73.7887 110.689 73.7662 111.413C73.7475 112.41 73.8262 113.055 74.1187 114.225C74.625 116.216 74.7225 117.469 74.49 118.211C74.3325 118.68 74.1787 118.856 73.65 119.111C72.4762 119.715 69.1575 120.049 67.3612 119.738L67.365 119.745ZM72.1087 118.144C72.7912 117.949 73.38 117.364 73.38 116.835C73.38 116.599 73.185 115.916 72.9487 115.313C72.48 114.161 71.6775 111.113 71.6775 110.606C71.6775 110.351 71.6962 110.333 72.0862 110.546L72.5175 110.783V110.235C72.4549 109.73 72.3431 109.233 72.1837 108.75C71.8125 107.636 71.775 107.618 69.4087 107.479L67.8075 107.4L67.2225 107.966C66.9008 108.297 66.6189 108.665 66.3825 109.061C66.1275 109.568 66.03 110.333 66.1875 110.505C66.225 110.565 66.6187 110.505 67.0462 110.408C67.3 110.332 67.5618 110.287 67.8262 110.273C67.8262 110.291 67.395 110.644 66.8512 111.015C64.5075 112.774 63.6862 113.846 63.6862 115.215C63.6862 116.64 65.0325 117.754 67.1437 118.088C68.5875 118.301 71.4 118.361 72.105 118.148L72.1087 118.144ZM103.886 115.819C104.471 115.114 104.392 114.394 103.65 113.573C103.219 113.141 102.731 112.77 102.184 112.478C101.636 112.185 101.089 111.851 100.541 111.503C99.551 110.861 98.5338 110.261 97.4925 109.706C96.5925 109.219 95.715 108.709 94.8562 108.165L94.5037 107.891V102.521C94.5037 97.23 94.485 97.1513 94.2112 97.23C92.8425 97.6013 90.5775 97.7775 87.7087 97.7175L84.6037 97.68L85.0537 98.775C85.8937 100.845 86.325 103.62 86.325 106.804C86.325 107.996 86.2462 108.424 85.9537 109.264C85.7962 109.673 85.6612 110.085 85.5225 110.494C85.4625 110.67 85.68 110.805 86.4787 111.041C87.0637 111.218 87.9225 111.394 88.4137 111.45L89.3137 111.548L89.2162 112.448C89.1187 113.464 89.235 114.536 89.49 114.87C89.6475 115.065 90.2325 115.144 92.9475 115.26C94.9987 115.358 97.2262 115.571 98.9812 115.826C100.504 116.063 102.146 116.258 102.634 116.258C103.455 116.276 103.534 116.239 103.882 115.826L103.886 115.819ZM72.6187 106.68C72.6975 106.62 72.8137 105.566 72.855 104.318C73.0125 100.823 73.1475 100.313 74.9062 96.3675C76.35 93.1463 77.115 90.1388 77.055 88.0088L77.0175 86.7375L76.47 87.2663C75.3375 88.3988 76.1175 86.6213 77.4675 85.0388C78.4837 83.8275 78.8362 83.1638 78.99 82.0913C79.0687 81.66 79.2262 81.4463 79.89 80.94C82.3735 79.0639 84.2871 76.5349 85.4175 73.635C85.6912 72.93 86.3925 70.53 86.9812 68.3025C88.0762 64.1813 88.6612 62.4038 89.19 61.6425C89.385 61.35 89.4637 61.29 89.4262 61.485C89.143 62.5324 88.9214 63.5955 88.7625 64.6688C88.605 65.625 88.3125 67.5 88.1175 68.8088C87.7462 71.4863 87.3562 73.2038 86.8275 74.5313L86.475 75.4313L87.4125 77.8538C88.3875 80.3325 88.8375 82.1325 88.9162 83.8688L88.9762 84.8438L88.215 85.0013C87.2102 85.1791 86.3136 85.7396 85.7137 86.565C85.05 87.5213 84.6787 88.305 84.855 88.4775C84.9337 88.5563 85.89 88.7325 86.985 88.8675C88.6837 89.0625 89.3287 89.0625 91.575 88.9275C92.55 88.89 93.51 88.7925 94.4662 88.6538C94.68 88.575 94.8975 88.1475 95.2462 87.0338C96.0487 84.4763 96.2025 83.5763 96.105 81.78L96.0262 80.1975L96.435 79.6688C97.3912 78.4575 98.1337 76.2713 98.445 73.71C98.8162 70.5863 98.1337 64.0425 96.8625 58.4175C96.2587 55.74 96.0037 54.1388 96.0037 52.9688V51.9338L95.0475 52.0313C91.6087 52.4025 87.45 52.305 84.9112 51.7763C83.5237 51.5025 80.0287 50.4675 79.2675 50.1338L78.6637 49.86L78.585 50.5425C78.525 50.9138 78.4687 51.285 78.39 51.675C78.2737 52.0838 78.3112 52.1813 79.035 52.8863C79.935 53.805 80.2087 54.2738 80.2087 54.8963C80.2087 55.2863 79.995 55.6013 78.9 56.7338C78.1149 57.5715 77.2438 58.3244 76.3012 58.98L75.03 59.8388L74.4825 61.7325C72.5287 68.6663 72.1575 74.9738 73.4475 79.485L73.7587 80.6175L73.1325 81.3975C70.7887 84.345 69.4012 86.5913 69.1875 87.8438C69.0625 88.4605 68.9187 89.0733 68.7562 89.6813C68.25 91.6163 67.8562 94.4475 67.6837 97.515C67.5635 100.083 67.3948 102.648 67.1775 105.21L67.08 105.971L68.055 106.264C68.6025 106.44 69.4237 106.635 69.8925 106.714C70.77 106.849 72.3937 106.811 72.645 106.676L72.6187 106.68ZM91.5825 95.9363C93.105 95.8388 94.4925 95.6025 94.7662 95.37C94.8825 95.2913 95.0212 94.8825 95.0587 94.47L95.1562 93.7275L93.945 94.0013C92.9887 94.1963 92.0325 94.3125 91.0725 94.3913C88.7662 94.4888 86.445 94.4288 84.1575 94.1963C83.3962 94.08 83.3962 94.08 83.6287 95.0738C83.8237 95.8163 83.865 95.8538 85.8562 95.9925C87.1837 96.1088 89.04 96.09 91.5787 95.9325L91.5825 95.9363ZM90.3112 92.5388C92.3025 92.3625 94.785 91.935 95.2725 91.68C95.43 91.6013 95.565 91.3088 95.625 90.975L95.8012 89.94L95.8987 89.4525L95.4112 89.55C93.2437 90 91.6012 90.135 88.32 90.135C85.1175 90.135 84.7462 90.1163 83.9062 89.8238C83.5834 89.6877 83.2397 89.6078 82.89 89.5875C82.755 89.6663 82.7325 90.78 82.8525 91.56C82.9312 92.0288 83.01 92.1075 83.4787 92.2425C84.9637 92.6513 87.465 92.7488 90.315 92.5163L90.3112 92.5388ZM54.0637 74.9213C59.0625 73.4775 65.6062 69.2363 70.9575 63.9263C72.6975 62.1863 72.9112 61.9538 73.1437 61.1738L73.455 60.1763C73.4925 60.0975 73.1812 59.9625 72.7725 59.865C71.7 59.61 70.8787 58.9875 70.8787 58.4213C70.8787 58.0875 70.6837 57.7575 70.1175 57.15C69.1987 56.115 68.9662 55.665 68.8687 54.6713L68.79 53.8688L67.695 53.0888C67.0687 52.6388 64.8825 51.4275 62.5575 50.2575C60.7872 49.3939 59.0544 48.4555 57.3637 47.445C55.41 46.1363 54.1012 44.5725 53.3587 42.72C53.2237 42.3488 53.0475 42.0375 52.9875 42.0375C52.83 42.0375 48.435 46.275 46.56 48.2663C41.9325 53.1488 38.7487 57.3863 36.735 61.3125C36.2287 62.2875 35.6812 63.4425 35.5237 63.87L35.2312 64.65L35.5837 65.9588C35.7975 66.6638 36.2475 67.815 36.6 68.4975C37.83 70.92 39.2962 72.3825 41.7187 73.575C44.3175 74.865 46.62 75.315 50.4675 75.255C52.5375 75.2363 53.145 75.1763 54.06 74.9025L54.0637 74.9213ZM14.61 57.7913C17.8912 54.8813 22.4212 51.6975 27.9712 48.3975C31.605 46.23 45.6487 39.1988 52.1137 36.3263C53.2875 35.7975 54.3412 35.31 54.4575 35.2538C54.5737 35.175 54.9075 34.335 55.2187 33.3975C56.5875 29.0625 57.27 28.2038 59.7487 27.6375C60.06 27.5588 60.1387 27.4613 60.1387 27.15C60.1387 26.5838 60.5287 25.275 60.8625 24.69C61.1175 24.24 61.1175 24.2213 60.9 24.2813C60.765 24.3188 59.9437 24.555 59.085 24.81C47.1712 28.2488 36.7612 32.8163 27.7762 38.52C18.1875 44.6138 12.66 51.9188 11.0587 60.6675L10.9425 61.3125L12.1162 60.1613C12.7425 59.5163 13.875 58.4625 14.6175 57.8175L14.61 57.7913ZM102.99 59.4525C103.946 58.965 105.431 56.7188 105.979 54.9413C106.136 54.315 106.447 53.73 106.897 53.2425C108.341 51.6413 109.534 48.7313 109.552 46.74C109.552 43.635 107.794 42.4425 105.236 43.77C104.902 43.9275 104.632 44.0438 104.591 44.0063C104.456 43.8713 105.176 43.1663 106.057 42.6188C107.209 41.8575 107.426 41.4075 107.426 39.7875C107.443 38.4781 107.054 37.1955 106.312 36.1163C105.96 35.5875 105.825 35.2388 105.881 35.0213L106.234 33.7125C106.721 31.9725 106.545 29.9813 105.784 28.7138C104.651 26.8013 103.264 25.8638 101.329 25.7063L100.196 25.6275L100.86 26.37C102.832 28.5 103.789 31.1738 103.399 33.4613C103.204 34.635 103.027 34.8675 101.895 35.3175L101.231 35.5913L101.31 36.4913C101.445 37.9575 101.194 39.03 100.256 41.0025C99.7875 42 99.435 42.8963 99.4762 42.9938C99.5925 43.3275 100.882 43.95 101.899 44.205L102.896 44.4413L102.27 44.655C101.449 44.91 101.272 45.2813 101.272 46.6275C101.272 47.8575 101.449 48.3675 102.345 49.7138C102.754 50.2988 103.027 50.9063 103.069 51.255C103.147 51.8025 103.129 51.84 102.679 51.9975C102.169 52.1407 101.644 52.2262 101.115 52.2525C99.2775 52.3688 99.1425 52.4288 98.3212 53.2088C97.5787 53.9138 97.56 53.9513 97.56 54.7313C97.56 55.8038 97.9687 57.975 98.2237 58.2675C98.5575 58.62 100.41 59.5388 101.134 59.6738C101.758 59.8305 102.418 59.7545 102.99 59.46V59.4525ZM75.9375 57.99C77.13 57.0525 78.0675 56.115 78.5925 55.3125C78.9262 54.825 78.945 54.7275 78.7875 54.315C78.5137 53.6888 76.7175 52.0688 75.72 51.5813C75.0553 51.2835 74.3522 51.0802 73.6312 50.9775L72.4012 50.82L71.64 49.8638C70.0575 47.91 69.18 46.3875 67.9275 43.4363C66.8325 40.935 65.8762 39.4725 64.3537 38.025C63.7275 37.44 63.2812 36.9525 63.3187 36.9525C63.3975 36.9525 64.14 37.3238 64.9987 37.7738C66.4237 38.535 66.6 38.595 67.245 38.4975C69.57 38.2238 71.6212 35.55 72.3637 31.8C72.5775 30.7463 73.0087 29.67 73.4587 29.025C73.4775 29.0063 74.3775 29.5913 75.4312 30.3525C78.1087 32.2463 78.6937 32.5388 80.2162 32.5988C81.2137 32.6363 81.78 32.5613 83.5762 32.13C87.405 31.1925 91.545 30.8213 94.065 31.155C95.49 31.35 97.5412 31.9763 99.0637 32.6963C100.567 33.4013 100.86 33.4388 101.347 33.0075C101.756 32.655 101.756 32.5988 101.756 31.29C101.737 29.355 101.032 27.2663 99.96 26.0175C99.4125 25.3725 97.8712 24.3188 96.345 23.5163C95.8024 23.2285 95.2624 22.936 94.725 22.6388C94.0012 22.2075 93.1837 22.2675 90.9562 22.8525C88.3762 23.5163 87.6937 23.5163 84.7462 22.755C82.245 22.1288 82.0912 22.11 79.6275 22.5C78.3187 22.695 75.0375 22.5788 73.9425 22.2863C73.395 22.1288 72.8475 21.975 72.3225 21.78C71.3662 21.4088 69.705 21.3488 68.2012 21.6225C65.2125 22.1513 62.9475 23.7713 62.1262 25.9763C61.695 27.09 61.755 27.6188 62.3212 27.9675C63.2212 28.5338 64.41 30.0788 64.41 30.6825C64.41 30.72 64.1175 30.4688 63.7837 30.1163C62.9437 29.2388 62.1825 28.845 61.2825 28.845C60.7002 28.8612 60.134 29.0397 59.6476 29.3603C59.1613 29.681 58.7742 30.1311 58.53 30.66C58.2672 31.35 58.0455 32.055 57.8662 32.7713C57.3187 34.7625 56.8312 35.82 55.7962 37.2263C54.8775 38.4975 54.7425 39.0638 55.0725 40.4888C55.8937 44.0813 57.3187 45.5288 63.2737 48.9075C66.3975 50.685 67.9987 51.6825 69.1725 52.56C70.0725 53.2238 70.0912 53.265 70.0125 53.7713C69.8362 54.945 70.5787 56.2125 72.045 57.2475C72.4162 57.5025 72.6487 57.7763 72.6487 57.9713C72.6487 58.3238 73.6462 58.8113 74.3662 58.8113C74.775 58.8113 75.09 58.635 75.93 57.99H75.9375ZM100.02 51.405C102.285 51.4838 102.401 51.3075 101.194 49.9013C99.9225 48.435 99.5737 47.2463 100.042 45.9375L100.237 45.4313L99.435 45.0413C99.1612 44.9063 98.8875 44.7675 98.6137 44.67C98.4787 45.1988 98.34 45.705 98.2237 46.2338C97.9312 47.4263 97.5787 50.5125 97.56 51.8213C97.56 51.9375 97.755 51.9 98.0887 51.6863C98.5575 51.4125 98.7937 51.375 100.024 51.4125L100.02 51.405ZM92.4225 51.2888C93.7912 51.21 95.1975 51.1125 95.5687 51.0525L96.2512 50.955L96.33 48.7088C96.4462 45.5063 96.915 43.6125 98.3025 40.5825C99.2775 38.4338 99.7087 36.5588 99.495 35.1525C99.4162 34.5488 99.3787 34.5075 98.5575 34.155C97.0537 33.5579 95.4876 33.1315 93.8887 32.8838C92.3475 32.67 87.8137 32.7863 86.115 33.12C85.41 33.2363 84.1237 33.51 83.265 33.7238C81.135 34.2113 80.0025 34.155 78.3825 33.45C76.7812 32.745 75.765 32.1038 74.8087 31.2038C74.0475 30.4988 73.9687 30.4613 73.7737 30.6975C73.6162 30.8738 73.5375 31.4025 73.4812 32.535C73.4212 34.275 73.1475 35.19 72.3862 36.42C72.2171 36.6731 72.0727 36.9418 71.955 37.2225C71.955 37.2825 72.54 37.965 73.2637 38.7075C75.765 41.3063 76.995 41.97 78.9675 41.8313C79.6125 41.7713 80.0625 41.7938 80.0625 41.8688C80.0625 42.0263 78.7912 43.02 78.2662 43.2938C78.0112 43.4288 77.955 43.5675 77.9925 43.86L78.3037 45.9113C78.48 47.085 78.615 47.6288 78.7912 47.7863C79.26 48.1763 81.6825 49.4288 83.205 50.0513C85.1962 50.8538 86.2912 51.1463 87.8137 51.2813C89.6887 51.4388 89.7262 51.4388 92.4225 51.2813V51.2888ZM76.2712 49.14C76.3087 49.08 76.1737 47.9475 75.9187 46.6388C75.6075 44.8613 75.4312 44.2163 75.2362 44.04C75.1012 43.9238 74.3775 43.4138 73.6537 42.8888C72.7028 42.205 71.8018 41.4543 70.9575 40.6425L69.6112 39.315L68.8875 39.6863L68.1262 40.095C68.1903 40.4001 68.295 40.6952 68.4375 40.9725C68.6512 41.4413 69.0825 42.5925 69.3937 43.53C70.215 45.9713 70.86 47.145 72.48 49.2713L73.0837 50.0738L74.235 50.25C74.88 50.3475 75.525 50.4863 75.7012 50.5425C75.975 50.6588 76.0125 50.6025 76.0912 49.9763C76.1287 49.7025 76.1887 49.41 76.2675 49.1363L76.2712 49.14ZM101.017 24.8438C102.015 24.7463 102.191 24.6075 101.76 24.1613C101.486 23.8875 100.86 23.8688 100.354 24.1013C100.02 24.2588 99.945 24.2175 99.4162 23.6513C98.8687 23.0475 98.8312 23.025 98.145 23.1038C97.5187 23.1825 97.4212 23.1638 97.3425 22.9088C97.0986 22.4899 96.7955 22.1084 96.4425 21.7763C95.9989 21.2722 95.4443 20.8781 94.8225 20.625C93.6112 20.1563 92.9287 20.2163 91.7737 20.8613C88.4325 22.6763 88.5712 22.6575 85.3462 21.8363C82.3387 21.075 80.0925 20.295 79.3687 19.8038C78.765 19.395 77.475 18.945 76.3987 18.8063C75.5962 18.69 75.09 18.8663 74.3287 19.4888L73.92 19.8225L74.2912 20.4675C74.7975 21.3675 74.7412 21.4238 73.98 20.76C73.1587 20.0775 72.1837 19.6088 71.5575 19.5863C71.1075 19.5863 69.78 20.1713 69.6225 20.4263C69.5625 20.505 69.975 20.6025 70.5225 20.64C71.0887 20.7 71.8687 20.895 72.3975 21.1088C73.7662 21.6938 74.4675 21.8888 75.7162 22.0088C77.085 22.1438 79.5637 21.99 79.8562 21.7538C80.0137 21.6188 80.4412 21.5963 81.3412 21.675C82.5337 21.7538 83.0212 21.87 85.8525 22.6313C87.495 23.0813 88.6462 23.04 90.6 22.515C91.5 22.26 92.6325 22.0088 93.1012 21.9488C93.9037 21.87 94.0575 21.9113 95.31 22.4775C97.3012 23.3775 98.3587 23.9438 98.9437 24.4688C99.5287 24.975 99.6075 24.975 101.014 24.8588L101.017 24.8438ZM89.8837 21.4275L91.0762 20.8013L91.0387 19.59C91.02 18.75 90.9787 17.9288 90.9412 17.1113L90.8437 15.8625L89.6512 16.7813C88.9462 17.3288 88.2637 17.7375 87.9712 17.7975C87.1125 17.955 82.875 17.7975 82.4812 17.5838C81.9567 17.1963 81.4661 16.7647 81.015 16.2938L79.92 15.18L79.9012 15.8438C79.9012 16.1963 79.8637 16.8 79.785 17.1713C79.6875 17.8763 79.6875 17.895 80.4487 18.8513C80.8575 19.38 81.1912 19.8488 81.1912 19.905C81.1912 20.2763 86.835 22.035 88.1062 22.0538C88.515 22.0538 89.025 21.8775 89.8837 21.4275ZM87.6187 16.9913C89.025 16.7175 89.7075 15.7013 90.2362 13.125C90.7837 10.35 91.0575 5.99625 90.8025 4.14C90.5662 2.46 88.6912 1.7175 85.1175 1.83375C82.89 1.9125 81.9712 2.12625 81.21 2.77125C80.7412 3.16125 80.7412 3.2025 80.5275 5.055C80.1375 8.61 80.7225 13.6688 81.7387 15.5625C82.2262 16.4813 82.6575 16.8113 83.5537 16.9688C84.57 17.145 86.7375 17.145 87.615 16.9875L87.6187 16.9913Z"
              fill="black"/>
    </g>

    <g id="htmlStack">
        <path d="M22.1323 102.004L13.7061 7.5H106.294L97.856 101.989L59.9436 112.5L22.1323 102.004Z" fill="#E44F26"/>
        <path d="M60 104.468L90.6375 95.9738L97.845 15.2288H60V104.468Z" fill="#F1662A"/>
        <path d="M60 50.2762H44.6625L43.605 38.4075H60V26.8162H30.9375L31.215 29.9287L34.0613 61.8675H60V50.2762ZM60 80.3775L59.9475 80.3925L47.04 76.9087L46.215 67.665H34.5787L36.2025 85.86L59.9475 92.4525L60 92.4375V80.3775Z"
              fill="#EBEBEB"/>
        <path d="M59.959 50.2762V61.8675H74.2315L72.889 76.9012L59.959 80.3887V92.4487L83.7227 85.86L83.8952 83.9025L86.6177 53.3887L86.9027 50.2762H59.959ZM59.959 26.8162V38.4075H87.9565L88.189 35.805L88.7177 29.9287L88.9952 26.8162H59.959Z"
              fill="white"/>
    </g>

    <g id="jsStack">
        <path d="M7.5 7.5H112.5V112.5H7.5V7.5Z" fill="#F5DE19"/>
        <path d="M78.0338 89.5312C78.9284 91.3485 80.3183 92.8759 82.0434 93.9375C83.7684 94.9991 85.7584 95.5515 87.7838 95.5313C91.8713 95.5313 94.485 93.4875 94.485 90.6562C94.485 87.2812 91.8 86.0738 87.3 84.105L84.8325 83.0475C77.7075 80.0138 72.9825 76.215 72.9825 68.1825C72.9825 60.7838 78.6075 55.1475 87.4313 55.1475C90.2877 54.9412 93.1416 55.5805 95.637 56.9856C98.1324 58.3907 100.159 60.4994 101.464 63.0488L93.75 67.98C93.2476 66.716 92.3728 65.6345 91.2416 64.879C90.1105 64.1236 88.7764 63.7298 87.4163 63.75C86.8229 63.6906 86.2236 63.7555 85.6567 63.9404C85.0897 64.1254 84.5675 64.4265 84.1234 64.8244C83.6792 65.2224 83.3228 65.7085 83.0769 66.2518C82.831 66.7951 82.7009 67.3837 82.695 67.98C82.695 70.9388 84.5288 72.1388 88.7625 73.98L91.23 75.0375C99.615 78.6338 104.355 82.2975 104.355 90.5363C104.355 99.42 97.3763 104.287 88.005 104.287C84.3537 104.52 80.713 103.691 77.5223 101.901C74.3317 100.11 71.7274 97.4342 70.0238 94.1963L78.0338 89.5312ZM43.1775 90.3863C44.7263 93.135 46.1363 95.46 49.5263 95.46C52.7663 95.46 54.8138 94.1925 54.8138 89.2612V55.71H64.68V89.3925C64.68 99.6075 58.68 104.257 49.9463 104.257C46.8591 104.426 43.7931 103.657 41.1513 102.051C38.5096 100.444 36.4157 98.0761 35.145 95.2575L43.1775 90.3863Z"
              fill="black"/>
    </g>

    <g id="reactStack">
        <path d="M92.9055 32.7027C91.703 32.2887 90.4903 31.9051 89.2686 31.5523C89.4738 30.7106 89.6627 29.8792 89.8304 29.0623C92.5837 15.6483 90.7838 4.84178 84.6359 1.28375C78.7415 -2.12722 69.1015 1.42949 59.3658 9.93342C58.4063 10.773 57.4681 11.6368 56.552 12.524C55.9388 11.934 55.3148 11.3556 54.6802 10.7888C44.4766 1.69616 34.2492 -2.13608 28.108 1.43215C22.2188 4.85374 20.4749 15.0127 22.9537 27.7254C23.2003 28.9844 23.4787 30.237 23.7887 31.4819C22.341 31.8947 20.9441 32.3342 19.6072 32.8019C7.64431 36.9881 0.00463867 43.5483 0.00463867 50.3529C0.00463867 57.3808 8.20617 64.43 20.666 68.7043C21.6762 69.0495 22.6947 69.3692 23.7208 69.6634C23.3875 71.0042 23.0917 72.354 22.8336 73.7114C20.4705 86.2035 22.3159 96.1223 28.1892 99.5222C34.2554 103.033 44.4369 99.4247 54.3505 90.7268C55.1544 90.0196 55.9406 89.2925 56.7083 88.546C57.7003 89.5066 58.7188 90.4393 59.7626 91.343C69.3659 99.6365 78.85 102.985 84.7176 99.5762C90.7781 96.055 92.7479 85.3995 90.1906 72.4356C89.9891 71.42 89.7632 70.4094 89.5131 69.4047C90.2281 69.1921 90.9299 68.9732 91.614 68.7455C104.567 64.4384 112.995 57.4747 112.995 50.3529C112.995 43.5234 105.109 36.919 92.9055 32.7027ZM90.0961 64.1474C89.4782 64.3525 88.8444 64.5505 88.1982 64.7432C86.7682 60.1995 84.8385 55.3684 82.4768 50.3764C84.7304 45.5036 86.5859 40.734 87.9758 36.22C89.1317 36.5558 90.2533 36.9097 91.3346 37.2832C101.791 40.8961 108.168 46.2372 108.168 50.3529C108.168 54.7367 101.28 60.4277 90.0961 64.1474ZM85.4556 73.3765C86.5864 79.1087 86.7475 84.2916 85.9985 88.3435C85.3258 91.9844 83.9726 94.4115 82.2989 95.3839C78.7384 97.4526 71.1234 94.7637 62.9109 87.6706C61.94 86.8305 60.9926 85.9634 60.0698 85.0703C63.2538 81.5756 66.4356 77.5131 69.5411 73.0008C75.0035 72.5144 80.164 71.7188 84.8438 70.6331C85.0693 71.5426 85.2732 72.4573 85.4556 73.3765ZM38.5256 95.0264C35.0467 96.2592 32.2758 96.2946 30.6008 95.3254C27.0368 93.2624 25.5551 85.298 27.5761 74.6151C27.8164 73.3527 28.0914 72.0972 28.401 70.8502C33.0292 71.8779 38.1522 72.6168 43.6274 73.0624C46.7541 77.4776 50.0277 81.5358 53.327 85.0894C52.6258 85.7703 51.9081 86.4338 51.1744 87.0793C46.7903 90.9252 42.3973 93.654 38.5256 95.0264ZM22.2276 64.1204C16.718 62.2302 12.1679 59.7738 9.04919 57.0933C6.24649 54.6848 4.8319 52.2932 4.8319 50.3529C4.8319 46.2234 10.9656 40.9564 21.1961 37.3766C22.4377 36.9425 23.7371 36.5327 25.0855 36.1482C26.4996 40.7641 28.3543 45.5904 30.5924 50.4707C28.3251 55.4233 26.444 60.3267 25.0162 64.997C24.0796 64.7278 23.1498 64.4355 22.2276 64.1204ZM27.6909 26.7947C25.5674 15.9031 26.9776 7.68706 30.5267 5.62497C34.3066 3.42867 42.6652 6.56011 51.4754 14.4115C52.0499 14.9247 52.6151 15.4482 53.1707 15.9819C49.8878 19.52 46.6442 23.548 43.5453 27.9371C38.2312 28.4315 33.1444 29.2253 28.4677 30.2889C28.1795 29.131 27.9205 27.9661 27.6909 26.7951V26.7947ZM76.43 38.8739C75.3254 36.9589 74.1797 35.0679 72.9939 33.2024C76.599 33.66 80.0532 34.2673 83.2968 35.0098C82.3232 38.1425 81.1094 41.4175 79.6807 44.7753C78.6364 42.7867 77.5526 40.8191 76.43 38.8739ZM56.5542 19.4443C58.7805 21.8652 61.0103 24.5678 63.2035 27.5003C58.7545 27.2894 54.298 27.2886 49.849 27.4977C52.0443 24.5922 54.2931 21.8931 56.5542 19.4443ZM36.5509 38.9071C35.4424 40.8367 34.3788 42.792 33.3612 44.7713C31.9558 41.4255 30.7531 38.1355 29.7711 34.9584C32.9948 34.2346 36.4326 33.6427 40.0148 33.1935C38.8158 35.0704 37.6608 36.9754 36.5509 38.9067V38.9071ZM40.1176 67.8569C36.4168 67.4423 32.9273 66.881 29.7044 66.1767C30.7019 62.9429 31.9311 59.5829 33.3669 56.1653C34.3886 58.1461 35.4566 60.1026 36.5699 62.033C37.7148 64.0176 38.9003 65.9614 40.1176 67.8569ZM56.6875 81.6027C54.3995 79.1255 52.1176 76.3848 49.8891 73.4372C52.0527 73.5222 54.2582 73.5656 56.5 73.5656C58.803 73.5656 61.0796 73.5138 63.3204 73.4137C61.1202 76.4145 58.8988 79.1592 56.6875 81.6027ZM79.7262 55.9907C81.2365 59.446 82.5094 62.7883 83.5202 65.9667C80.2443 66.7171 76.7072 67.3214 72.9803 67.7701C74.1745 65.8699 75.331 63.9461 76.449 61.9998C77.5857 60.0214 78.6783 58.0179 79.7262 55.9907ZM72.2679 59.5794C70.5563 62.5634 68.7486 65.4909 66.8474 68.357C63.4037 68.6018 59.9523 68.7234 56.5 68.7216C52.9836 68.7216 49.5634 68.6118 46.2699 68.3974C44.3191 65.5378 42.4769 62.6053 40.747 59.6059H40.7475C39.0258 56.6225 37.4176 53.5745 35.9264 50.4685C37.4138 47.3618 39.0171 44.3124 40.7329 41.3267L40.7325 41.3271C42.4476 38.3407 44.2752 35.4206 46.2112 32.5734C49.5713 32.3182 53.0171 32.1853 56.4995 32.1853H56.5C59.9983 32.1853 63.4484 32.3195 66.8077 32.5765C68.7242 35.4195 70.5401 38.3295 72.252 41.301C73.9735 44.2801 75.598 47.3147 77.123 50.3999C75.6137 53.5166 73.9943 56.5783 72.2679 59.5794ZM82.2252 5.48056C86.0086 7.67067 87.4801 16.5024 85.1029 28.0842C84.9511 28.8231 84.7807 29.5757 84.5953 30.339C79.9071 29.2528 74.8168 28.4452 69.4873 27.9433C66.3827 23.506 63.1655 19.4717 59.936 15.9792C60.7824 15.1604 61.6489 14.3628 62.5348 13.5871C70.8767 6.30141 78.673 3.42468 82.2252 5.48056ZM56.5 40.2263C62.0723 40.2263 66.5897 44.7603 66.5897 50.3529C66.5897 55.9456 62.0723 60.4795 56.5 60.4795C50.9277 60.4795 46.4102 55.9456 46.4102 50.3529C46.4102 44.7603 50.9277 40.2263 56.5 40.2263Z"
              fill="#00D8FF"/>
        <defs>
            <clipPath id="clip0_2_5687">
                <rect width="113" height="101" fill="white"/>
            </clipPath>
        </defs>
    </g>

    <g id="sassStack">
        <path d="M100.673 50.0766C96.603 50.0975 93.0653 51.0694 90.1035 52.5063C89.0162 50.3721 87.9295 48.4708 87.738 47.076C87.5246 45.4493 87.2691 44.4561 87.5246 42.5122C87.7805 40.5683 88.9312 37.8001 88.9098 37.589C88.8887 37.3778 88.6538 36.3846 86.3098 36.3637C83.9658 36.3424 81.9413 36.8073 81.7068 37.42C81.4724 38.0326 81.025 39.4273 80.7266 40.8637C80.3216 42.9771 76.0386 50.5198 73.5881 54.471C72.7993 52.9291 72.1174 51.5765 71.968 50.499C71.755 48.8722 71.4991 47.879 71.755 45.9351C72.0109 43.9912 73.1617 41.2235 73.1402 41.0119C73.1187 40.8007 72.8843 39.8075 70.5403 39.7866C68.1958 39.7653 66.1713 40.2302 65.9373 40.8429C65.7029 41.4559 65.4469 42.8923 64.957 44.2871C64.4667 45.6818 58.7769 58.275 57.2852 61.5285C56.6824 62.8453 56.0501 64.1487 55.3886 65.4376C55.3886 65.4376 55.3672 65.501 55.3032 65.6066C55.0954 66.0107 54.8824 66.4122 54.6643 66.811V66.8318C54.3444 67.4028 54.0035 67.9307 53.833 67.9307C53.705 67.9307 53.4706 66.4095 53.8755 64.3387C54.7278 59.9652 56.7524 53.1615 56.7313 52.9291C56.7313 52.8022 57.1148 51.6191 55.4101 51.006C53.7475 50.3934 53.1511 51.4075 53.0017 51.4075C52.8527 51.4075 52.7458 51.7668 52.7458 51.7668C52.7458 51.7668 54.6003 44.118 49.2085 44.118C45.8417 44.118 41.1958 47.7734 38.8943 51.0694C36.278 52.4811 33.6639 53.8968 31.052 55.3166C29.7953 56.0139 28.4951 56.7113 27.2803 57.3661C27.1949 57.2818 27.1099 57.1758 27.0244 57.0915C20.5034 50.1822 8.442 45.3012 8.95339 36.0257C9.14534 32.6449 10.3171 23.7705 32.1178 12.9947C50.0608 4.22583 64.3392 6.65549 66.8111 12.0436C70.3484 19.7349 59.1608 34.0183 40.6204 36.0887C33.5455 36.8708 29.8373 34.1661 28.9 33.152C27.9197 32.0953 27.7703 32.0318 27.4079 32.2435C26.8115 32.5606 27.1949 33.5113 27.4079 34.0605C27.9622 35.4969 30.2422 38.0326 34.0994 39.2796C37.5091 40.378 45.7988 40.991 55.8361 37.1454C67.0666 32.8348 75.8466 20.8546 73.2682 10.8183C70.6893 0.633908 53.641 -2.72556 37.5091 2.95799C27.9197 6.33921 17.52 11.6634 10.0402 18.594C1.15363 26.834 -0.253039 33.997 0.322334 36.9976C2.38984 47.6465 17.2006 54.5771 23.1248 59.7114C22.8263 59.8804 22.5489 60.0286 22.3149 60.1555C19.3526 61.6132 8.05811 67.4658 5.24523 73.6568C2.04891 80.6716 5.75708 85.7009 8.20756 86.3765C15.8154 88.4686 23.6362 84.7076 27.8342 78.4953C32.0323 72.2834 31.5209 64.2119 29.5818 60.5144C29.5604 60.4722 29.5393 60.4296 29.4964 60.3875C30.2637 59.9439 31.052 59.479 31.8194 59.0354C33.2296 58.2088 34.6578 57.4126 36.1029 56.6474C35.3781 58.6126 34.8452 60.958 34.5897 64.3387C34.2698 68.3113 35.9105 73.4665 38.063 75.4947C39.0223 76.3828 40.1515 76.4037 40.8763 76.4037C43.3908 76.4037 44.5205 74.3329 45.7778 71.8819C47.3119 68.8818 48.6971 65.3954 48.6971 65.3954C48.6971 65.3954 46.971 74.8191 51.6595 74.8191C53.3641 74.8191 55.0902 72.6214 55.8575 71.5017V71.5226C55.8575 71.5226 55.9 71.4592 55.9855 71.3114C56.156 71.0368 56.2624 70.8674 56.2624 70.8674V70.8257C56.9443 69.6421 58.4789 66.9587 60.7589 62.5004C63.6998 56.7534 66.5342 49.5696 66.5342 49.5696C66.5342 49.5696 66.7901 51.3232 67.6634 54.239C68.1753 55.9505 69.2401 57.831 70.0929 59.648C69.411 60.5991 68.9846 61.127 68.9846 61.127L69.0061 61.1483C68.4518 61.8665 67.8554 62.6481 67.1945 63.4094C64.8716 66.1558 62.1016 69.3045 61.7178 70.2126C61.2699 71.2901 61.3768 72.0722 62.2296 72.7062C62.8475 73.1711 63.9553 73.234 65.085 73.1711C67.1735 73.0229 68.6437 72.5158 69.3681 72.1991C70.4978 71.7976 71.819 71.1846 73.0548 70.276C75.3352 68.6067 76.72 66.2192 76.5925 63.0714C76.5285 61.3386 75.9531 59.6059 75.2498 57.9787C75.4632 57.6833 75.6547 57.3874 75.8681 57.0915C79.4693 51.8724 82.2612 46.1462 82.2612 46.1462C82.2612 46.1462 82.5171 47.8998 83.3905 50.8161C83.8168 52.2951 84.6907 53.901 85.4575 55.4643C82.0693 58.1903 79.9807 61.3594 79.2349 63.4302C77.8926 67.2759 78.9365 69.0082 80.9185 69.4097C81.8133 69.6 83.092 69.1772 84.0298 68.7757C85.2231 68.3956 86.6297 67.7408 87.9724 66.7684C90.2529 65.0995 92.4474 62.775 92.3195 59.6272C92.2555 58.1903 91.8721 56.7743 91.3392 55.4009C94.2161 54.2182 97.9242 53.563 102.655 54.1122C112.799 55.2953 114.802 61.5706 114.418 64.2123C114.035 66.8531 111.904 68.29 111.201 68.7336C110.497 69.1777 110.263 69.3254 110.327 69.6421C110.412 70.107 110.753 70.0862 111.35 70.0014C112.181 69.8537 116.678 67.8672 116.869 63.0075C117.189 56.7956 111.222 50.0132 100.673 50.0766ZM22.4214 76.2346C19.0542 79.8687 14.3662 81.2421 12.3417 80.0803C10.1681 78.8333 11.0204 73.4665 15.1545 69.6213C17.669 67.2759 20.9083 65.0991 23.0608 63.7683C23.5507 63.4724 24.2755 63.0501 25.1493 62.5217C25.2983 62.437 25.3838 62.3948 25.3838 62.3948L25.8952 62.0776C27.4078 67.5713 25.9591 72.4103 22.4214 76.2346ZM46.9285 59.7114C45.7563 62.543 43.3058 69.7903 41.8141 69.3888C40.5354 69.0508 39.7466 63.5571 41.5582 58.1269C42.4745 55.4009 44.4136 52.147 45.5433 50.8796C47.3759 48.8509 49.4005 48.1744 49.8904 48.9991C50.5087 50.0766 47.6529 57.9365 46.9285 59.7114ZM67.152 69.3041C66.6617 69.5578 66.1932 69.7269 65.9798 69.6C65.8308 69.5153 66.1932 69.1772 66.1932 69.1772C66.1932 69.1772 68.7292 66.473 69.7305 65.2473C70.3063 64.5291 70.9877 63.684 71.7125 62.7329V63.0075C71.7125 66.2405 68.5583 68.4169 67.1516 69.3041H67.152ZM82.7511 65.7756C82.3887 65.5219 82.4527 64.6768 83.6674 62.0355C84.1363 61.0001 85.2441 59.2678 87.1411 57.5985C87.3541 58.2746 87.5035 58.9298 87.4821 59.5424C87.4606 63.6205 84.5202 65.1417 82.7511 65.7756Z"
              fill="#CD6799"/>
        <defs>
            <clipPath id="clip0_2_5689">
                <rect width="117" height="87" fill="white"/>
            </clipPath>
        </defs>
    </g>

    <g id="tailwindStack">
        <path d="M36.8438 56.0844C40.6646 40.801 50.2167 33.1594 65.5 33.1594C88.425 33.1594 91.2906 50.3531 102.753 53.2187C110.395 55.1292 117.081 52.2635 122.812 44.6219C118.992 59.9052 109.44 67.5469 94.1562 67.5469C71.2313 67.5469 68.3656 50.3531 56.9031 47.4875C49.2615 45.5771 42.575 48.4427 36.8438 56.0844ZM8.1875 90.4719C12.0083 75.1885 21.5604 67.5469 36.8438 67.5469C59.7687 67.5469 62.6344 84.7406 74.0969 87.6062C81.7385 89.5167 88.425 86.651 94.1562 79.0094C90.3354 94.2927 80.7833 101.934 65.5 101.934C42.575 101.934 39.7094 84.7406 28.2469 81.875C20.6052 79.9646 13.9187 82.8302 8.1875 90.4719Z"
              fill="#44A8B3"/>
    </g>

    <g id="vectorStack">
        <path d="M72.6971 69.5627C76.5688 69.1619 79.5061 65.8242 79.3725 61.8184C79.2393 57.8131 75.9012 54.6086 71.8959 54.6086H71.6291C67.4897 54.7422 64.2856 58.2135 64.4193 62.3525C64.5529 64.3553 65.3537 66.091 66.5553 67.2926C62.016 76.2385 55.0734 82.7807 44.6594 88.2549C37.5832 91.9934 30.2402 93.3287 22.8971 92.3943C16.8889 91.593 12.216 88.923 9.27827 84.5164C5.00614 77.9742 4.60573 70.8975 8.21065 63.8213C10.7475 58.7475 14.7525 55.009 17.2893 53.1398C16.7553 51.4041 15.9541 48.4668 15.5537 46.3307C-3.80574 60.35 -1.80287 79.3094 4.07172 88.2549C8.47745 94.9311 17.4229 99.0701 27.3029 99.0701C29.9729 99.0701 32.643 98.8029 35.3135 98.1357C52.4033 94.7975 65.3541 84.65 72.6971 69.5627ZM96.1955 53.0066C86.0483 41.1234 71.0951 34.5811 54.0053 34.5811H51.8693C50.6676 32.1779 48.1307 30.5754 45.327 30.5754H45.0598C40.9213 30.709 37.7172 34.1803 37.8504 38.3197C37.984 42.325 41.3217 45.5295 45.327 45.5295H45.5938C48.5311 45.3959 51.068 43.5266 52.1361 40.9898H54.5393C64.6865 40.9898 74.2992 43.927 82.9779 49.6684C89.6533 54.0746 94.4598 59.816 97.1299 66.7586C99.3996 72.3664 99.266 77.8406 96.8627 82.5139C93.1246 89.5902 86.8496 93.4623 78.5717 93.4623C73.2311 93.4623 68.1578 91.8598 65.4873 90.6582C64.0188 91.9934 61.3484 94.1295 59.4791 95.4652C65.2205 98.1352 71.0951 99.6041 76.7025 99.6041C89.5197 99.6041 98.9992 92.5275 102.604 85.4512C106.476 77.707 106.209 64.3553 96.1955 53.0066ZM28.3709 71.832C28.5045 75.8377 31.8422 79.0418 35.8475 79.0418H36.1147C40.2537 78.9086 43.4578 75.4369 43.3242 71.2979C43.191 67.2922 39.8529 64.0881 35.8475 64.0881H35.5807C35.3135 64.0881 34.9127 64.0881 34.6463 64.2213C29.1721 55.1422 26.9025 45.2623 27.7037 34.5807C28.2373 26.5697 30.9078 19.6266 35.5807 13.8852C39.4525 8.94508 46.9291 6.5418 52.0029 6.40861C66.1549 6.14139 72.1627 23.7656 72.5635 30.8422C74.2992 31.2426 77.2365 32.1775 79.2393 32.8451C77.6369 11.2156 64.2856 0 51.4688 0C39.4524 0 28.3709 8.67869 23.9647 21.4963C17.8234 38.5865 21.8287 55.009 29.3053 67.9602C28.6381 68.8947 28.2373 70.3635 28.3709 71.8324V71.832Z"
              fill="#764ABC"/>
    </g>

    <g id="vscodeStack">
        <path d="M101.535 17.605L81.3541 7.88899C80.2144 7.33948 78.932 7.15814 77.6847 7.37011C76.4373 7.58208 75.2868 8.17686 74.3926 9.07199L8.3301 69.3C7.52857 70.0273 7.04878 71.0432 6.99627 72.1243C6.94376 73.2053 7.32283 74.2629 8.0501 75.0645C8.1376 75.159 8.2251 75.25 8.3196 75.334L13.7131 80.234C14.4179 80.8754 15.325 81.2497 16.2771 81.2919C17.2291 81.3341 18.1658 81.0416 18.9246 80.465L98.4971 20.125C99.0981 19.6689 99.8145 19.3897 100.566 19.3186C101.317 19.2476 102.073 19.3877 102.749 19.7231C103.425 20.0585 103.993 20.5758 104.391 21.217C104.789 21.8581 105 22.5975 105 23.352V23.1175C105 21.9656 104.675 20.8372 104.062 19.862C103.449 18.8868 102.573 18.1045 101.535 17.605Z"
              fill="#0065A9"/>
        <path d="M101.535 94.395L81.3541 104.115C80.2141 104.662 78.9321 104.843 77.6851 104.631C76.4381 104.419 75.2876 103.825 74.3926 102.932L8.3301 42.7C7.52857 41.9727 7.04878 40.9568 6.99627 39.8758C6.94376 38.7947 7.32283 37.7371 8.0501 36.9355C8.1376 36.841 8.2251 36.75 8.3196 36.666L13.7131 31.766C14.4186 31.1219 15.3278 30.7459 16.2822 30.7037C17.2366 30.6615 18.1755 30.9557 18.9351 31.535L98.4971 91.875C99.0981 92.3311 99.8145 92.6104 100.566 92.6814C101.317 92.7524 102.073 92.6123 102.749 92.2769C103.425 91.9415 103.993 91.4242 104.391 90.783C104.789 90.1419 105 89.4025 105 88.648V88.9C104.996 90.0488 104.669 91.1733 104.057 92.1451C103.444 93.1168 102.57 93.8965 101.535 94.395Z"
              fill="#007ACC"/>
        <path d="M81.3539 104.114C80.2139 104.662 78.9319 104.843 77.6849 104.631C76.4379 104.419 75.2874 103.825 74.3924 102.931C74.895 103.428 75.5329 103.764 76.226 103.899C76.9192 104.034 77.6368 103.962 78.2889 103.691C78.941 103.42 79.4987 102.963 79.892 102.376C80.2853 101.79 80.4968 101.1 80.4999 100.394V11.606C80.5005 10.8965 80.2905 10.2028 79.8965 9.61274C79.5025 9.02271 78.9423 8.56288 78.2867 8.29152C77.6312 8.02016 76.9098 7.94946 76.2141 8.0884C75.5183 8.22734 74.8795 8.56965 74.3784 9.07197C75.2728 8.17717 76.423 7.58235 77.6702 7.3698C78.9173 7.15724 80.1997 7.33744 81.3399 7.88547L101.517 17.5875C102.559 18.0845 103.438 18.8657 104.054 19.8411C104.67 20.8165 104.998 21.9463 105 23.1V88.9C105 90.0528 104.675 91.1822 104.061 92.1581C103.447 93.134 102.571 93.9167 101.531 94.416L81.3539 104.114Z"
              fill="#1F9CF0"/>
    </g>

</svg>
